G04 EAGLE Gerber RS-274X export*
G75*
%MOMM*%
%FSLAX34Y34*%
%LPD*%
%INBottom Copper*%
%IPPOS*%
%AMOC8*
5,1,8,0,0,1.08239X$1,22.5*%
G01*
%ADD10R,1.308000X1.308000*%
%ADD11C,1.308000*%
%ADD12P,1.429621X8X112.500000*%
%ADD13P,1.429621X8X292.500000*%
%ADD14C,1.524000*%
%ADD15C,0.609600*%

G36*
X988688Y10176D02*
X988688Y10176D01*
X988807Y10183D01*
X988845Y10196D01*
X988886Y10201D01*
X988996Y10244D01*
X989109Y10281D01*
X989144Y10303D01*
X989181Y10318D01*
X989277Y10387D01*
X989378Y10451D01*
X989406Y10481D01*
X989439Y10504D01*
X989515Y10596D01*
X989596Y10683D01*
X989616Y10718D01*
X989641Y10749D01*
X989692Y10857D01*
X989750Y10961D01*
X989760Y11001D01*
X989777Y11037D01*
X989799Y11154D01*
X989829Y11269D01*
X989833Y11329D01*
X989837Y11349D01*
X989835Y11370D01*
X989839Y11430D01*
X989839Y325853D01*
X989822Y325990D01*
X989809Y326129D01*
X989802Y326148D01*
X989799Y326169D01*
X989748Y326297D01*
X989701Y326429D01*
X989690Y326445D01*
X989682Y326464D01*
X989601Y326577D01*
X989523Y326692D01*
X989507Y326705D01*
X989496Y326722D01*
X989388Y326810D01*
X989284Y326902D01*
X989266Y326911D01*
X989251Y326924D01*
X989125Y326984D01*
X989001Y327047D01*
X988981Y327051D01*
X988963Y327060D01*
X988827Y327086D01*
X988691Y327116D01*
X988670Y327116D01*
X988651Y327120D01*
X988512Y327111D01*
X988373Y327107D01*
X988353Y327101D01*
X988333Y327100D01*
X988201Y327057D01*
X988067Y327018D01*
X988050Y327008D01*
X988031Y327002D01*
X987913Y326927D01*
X987793Y326857D01*
X987772Y326838D01*
X987762Y326832D01*
X987748Y326817D01*
X987673Y326750D01*
X985596Y324674D01*
X979804Y321330D01*
X973344Y319599D01*
X966656Y319599D01*
X960196Y321330D01*
X954404Y324674D01*
X949674Y329404D01*
X946330Y335196D01*
X944599Y341656D01*
X944599Y348344D01*
X946330Y354804D01*
X949674Y360596D01*
X954404Y365326D01*
X960196Y368670D01*
X966656Y370401D01*
X973344Y370401D01*
X979804Y368670D01*
X985596Y365326D01*
X987673Y363250D01*
X987782Y363164D01*
X987889Y363076D01*
X987908Y363067D01*
X987924Y363055D01*
X988052Y362999D01*
X988177Y362940D01*
X988197Y362936D01*
X988216Y362928D01*
X988354Y362906D01*
X988490Y362880D01*
X988510Y362882D01*
X988530Y362878D01*
X988669Y362891D01*
X988807Y362900D01*
X988826Y362906D01*
X988846Y362908D01*
X988978Y362955D01*
X989109Y362998D01*
X989127Y363009D01*
X989146Y363016D01*
X989261Y363094D01*
X989378Y363168D01*
X989392Y363183D01*
X989409Y363194D01*
X989501Y363299D01*
X989596Y363400D01*
X989606Y363418D01*
X989619Y363433D01*
X989683Y363557D01*
X989750Y363678D01*
X989755Y363698D01*
X989764Y363716D01*
X989794Y363852D01*
X989829Y363986D01*
X989831Y364014D01*
X989834Y364026D01*
X989833Y364047D01*
X989839Y364147D01*
X989839Y508570D01*
X989824Y508688D01*
X989817Y508807D01*
X989804Y508845D01*
X989799Y508886D01*
X989756Y508996D01*
X989719Y509109D01*
X989697Y509144D01*
X989682Y509181D01*
X989613Y509277D01*
X989549Y509378D01*
X989519Y509406D01*
X989496Y509439D01*
X989404Y509515D01*
X989317Y509596D01*
X989282Y509616D01*
X989251Y509641D01*
X989143Y509692D01*
X989039Y509750D01*
X988999Y509760D01*
X988963Y509777D01*
X988846Y509799D01*
X988731Y509829D01*
X988671Y509833D01*
X988651Y509837D01*
X988630Y509835D01*
X988570Y509839D01*
X11430Y509839D01*
X11312Y509824D01*
X11193Y509817D01*
X11155Y509804D01*
X11114Y509799D01*
X11004Y509756D01*
X10891Y509719D01*
X10856Y509697D01*
X10819Y509682D01*
X10723Y509613D01*
X10622Y509549D01*
X10594Y509519D01*
X10561Y509496D01*
X10485Y509404D01*
X10404Y509317D01*
X10384Y509282D01*
X10359Y509251D01*
X10308Y509143D01*
X10250Y509039D01*
X10240Y508999D01*
X10223Y508963D01*
X10201Y508846D01*
X10171Y508731D01*
X10167Y508671D01*
X10163Y508651D01*
X10165Y508630D01*
X10161Y508570D01*
X10161Y11430D01*
X10176Y11312D01*
X10183Y11193D01*
X10196Y11155D01*
X10201Y11114D01*
X10244Y11004D01*
X10281Y10891D01*
X10303Y10856D01*
X10318Y10819D01*
X10387Y10723D01*
X10451Y10622D01*
X10481Y10594D01*
X10504Y10561D01*
X10596Y10485D01*
X10683Y10404D01*
X10718Y10384D01*
X10749Y10359D01*
X10857Y10308D01*
X10961Y10250D01*
X11001Y10240D01*
X11037Y10223D01*
X11154Y10201D01*
X11269Y10171D01*
X11329Y10167D01*
X11349Y10163D01*
X11370Y10165D01*
X11430Y10161D01*
X988570Y10161D01*
X988688Y10176D01*
G37*
%LPC*%
G36*
X453411Y57949D02*
X453411Y57949D01*
X446409Y60850D01*
X441050Y66209D01*
X438149Y73211D01*
X438149Y80789D01*
X441050Y87791D01*
X446409Y93150D01*
X453411Y96051D01*
X459870Y96051D01*
X460007Y96068D01*
X460146Y96081D01*
X460165Y96088D01*
X460185Y96091D01*
X460314Y96142D01*
X460445Y96189D01*
X460462Y96200D01*
X460481Y96208D01*
X460593Y96289D01*
X460708Y96367D01*
X460722Y96383D01*
X460738Y96394D01*
X460827Y96502D01*
X460919Y96606D01*
X460928Y96624D01*
X460941Y96639D01*
X461000Y96765D01*
X461063Y96889D01*
X461068Y96909D01*
X461076Y96927D01*
X461103Y97063D01*
X461133Y97199D01*
X461132Y97220D01*
X461136Y97239D01*
X461128Y97378D01*
X461123Y97517D01*
X461118Y97537D01*
X461116Y97557D01*
X461074Y97689D01*
X461035Y97823D01*
X461025Y97840D01*
X461018Y97859D01*
X460944Y97977D01*
X460873Y98097D01*
X460855Y98118D01*
X460848Y98128D01*
X460833Y98142D01*
X460767Y98217D01*
X448829Y110156D01*
X448751Y110216D01*
X448679Y110284D01*
X448626Y110313D01*
X448578Y110350D01*
X448487Y110390D01*
X448400Y110438D01*
X448342Y110453D01*
X448286Y110477D01*
X448188Y110492D01*
X448092Y110517D01*
X447992Y110523D01*
X447972Y110527D01*
X447959Y110525D01*
X447931Y110527D01*
X328306Y110527D01*
X274827Y164006D01*
X274827Y209251D01*
X274815Y209349D01*
X274812Y209448D01*
X274795Y209507D01*
X274787Y209567D01*
X274751Y209659D01*
X274723Y209754D01*
X274693Y209806D01*
X274670Y209862D01*
X274612Y209943D01*
X274562Y210028D01*
X274496Y210103D01*
X274484Y210120D01*
X274474Y210128D01*
X274456Y210149D01*
X271271Y213333D01*
X271271Y220067D01*
X276033Y224829D01*
X282767Y224829D01*
X287529Y220067D01*
X287529Y213333D01*
X284344Y210149D01*
X284284Y210070D01*
X284216Y209998D01*
X284187Y209945D01*
X284150Y209897D01*
X284110Y209807D01*
X284062Y209720D01*
X284047Y209661D01*
X284023Y209606D01*
X284008Y209508D01*
X283983Y209412D01*
X283977Y209312D01*
X283973Y209292D01*
X283975Y209279D01*
X283973Y209251D01*
X283973Y168320D01*
X283985Y168222D01*
X283988Y168123D01*
X284005Y168064D01*
X284013Y168004D01*
X284049Y167912D01*
X284077Y167817D01*
X284107Y167765D01*
X284130Y167709D01*
X284188Y167629D01*
X284238Y167543D01*
X284304Y167468D01*
X284316Y167451D01*
X284326Y167443D01*
X284344Y167422D01*
X331722Y120044D01*
X331801Y119984D01*
X331873Y119916D01*
X331926Y119887D01*
X331974Y119850D01*
X332065Y119810D01*
X332151Y119762D01*
X332210Y119747D01*
X332265Y119723D01*
X332363Y119708D01*
X332459Y119683D01*
X332559Y119677D01*
X332580Y119673D01*
X332592Y119675D01*
X332620Y119673D01*
X404996Y119673D01*
X405134Y119690D01*
X405273Y119703D01*
X405292Y119710D01*
X405312Y119713D01*
X405441Y119764D01*
X405572Y119811D01*
X405589Y119822D01*
X405607Y119830D01*
X405720Y119911D01*
X405835Y119989D01*
X405848Y120005D01*
X405865Y120016D01*
X405954Y120124D01*
X406045Y120228D01*
X406055Y120246D01*
X406068Y120261D01*
X406127Y120387D01*
X406190Y120511D01*
X406195Y120531D01*
X406203Y120549D01*
X406229Y120685D01*
X406260Y120821D01*
X406259Y120842D01*
X406263Y120861D01*
X406254Y121000D01*
X406250Y121139D01*
X406244Y121159D01*
X406243Y121179D01*
X406200Y121311D01*
X406162Y121445D01*
X406151Y121462D01*
X406145Y121481D01*
X406071Y121599D01*
X406000Y121719D01*
X405982Y121740D01*
X405975Y121750D01*
X405960Y121764D01*
X405894Y121839D01*
X319534Y208200D01*
X319455Y208260D01*
X319383Y208328D01*
X319330Y208357D01*
X319282Y208394D01*
X319191Y208434D01*
X319105Y208482D01*
X319046Y208497D01*
X318991Y208521D01*
X318893Y208536D01*
X318797Y208561D01*
X318697Y208567D01*
X318676Y208571D01*
X318664Y208569D01*
X318636Y208571D01*
X314133Y208571D01*
X309371Y213333D01*
X309371Y220067D01*
X314133Y224829D01*
X320867Y224829D01*
X325629Y220067D01*
X325629Y215564D01*
X325641Y215466D01*
X325644Y215367D01*
X325661Y215308D01*
X325669Y215248D01*
X325705Y215156D01*
X325733Y215061D01*
X325763Y215009D01*
X325786Y214953D01*
X325844Y214873D01*
X325894Y214787D01*
X325960Y214712D01*
X325972Y214695D01*
X325982Y214687D01*
X326000Y214666D01*
X413002Y127664D01*
X413081Y127604D01*
X413153Y127536D01*
X413206Y127507D01*
X413254Y127470D01*
X413345Y127430D01*
X413431Y127382D01*
X413490Y127367D01*
X413545Y127343D01*
X413643Y127328D01*
X413739Y127303D01*
X413839Y127297D01*
X413860Y127293D01*
X413872Y127295D01*
X413900Y127293D01*
X435476Y127293D01*
X435614Y127310D01*
X435753Y127323D01*
X435772Y127330D01*
X435792Y127333D01*
X435921Y127384D01*
X436052Y127431D01*
X436069Y127442D01*
X436087Y127450D01*
X436200Y127531D01*
X436315Y127609D01*
X436328Y127625D01*
X436345Y127636D01*
X436434Y127744D01*
X436525Y127848D01*
X436535Y127866D01*
X436548Y127881D01*
X436607Y128007D01*
X436670Y128131D01*
X436675Y128151D01*
X436683Y128169D01*
X436709Y128305D01*
X436740Y128441D01*
X436739Y128462D01*
X436743Y128481D01*
X436734Y128620D01*
X436730Y128759D01*
X436724Y128779D01*
X436723Y128799D01*
X436680Y128931D01*
X436642Y129065D01*
X436631Y129082D01*
X436625Y129101D01*
X436551Y129219D01*
X436480Y129339D01*
X436462Y129360D01*
X436455Y129370D01*
X436440Y129384D01*
X436374Y129459D01*
X357634Y208200D01*
X357555Y208260D01*
X357483Y208328D01*
X357430Y208357D01*
X357382Y208394D01*
X357291Y208434D01*
X357205Y208482D01*
X357146Y208497D01*
X357091Y208521D01*
X356993Y208536D01*
X356897Y208561D01*
X356797Y208567D01*
X356776Y208571D01*
X356764Y208569D01*
X356736Y208571D01*
X352233Y208571D01*
X347471Y213333D01*
X347471Y220067D01*
X352233Y224829D01*
X358967Y224829D01*
X363729Y220067D01*
X363729Y215564D01*
X363741Y215466D01*
X363744Y215367D01*
X363761Y215308D01*
X363769Y215248D01*
X363805Y215156D01*
X363833Y215061D01*
X363863Y215009D01*
X363886Y214953D01*
X363944Y214873D01*
X363994Y214787D01*
X364060Y214712D01*
X364072Y214695D01*
X364082Y214687D01*
X364100Y214666D01*
X443482Y135284D01*
X443561Y135224D01*
X443633Y135156D01*
X443686Y135127D01*
X443734Y135090D01*
X443825Y135050D01*
X443911Y135002D01*
X443970Y134987D01*
X444025Y134963D01*
X444123Y134948D01*
X444219Y134923D01*
X444319Y134917D01*
X444340Y134913D01*
X444352Y134915D01*
X444380Y134913D01*
X458558Y134913D01*
X473426Y120044D01*
X473505Y119984D01*
X473577Y119916D01*
X473630Y119887D01*
X473678Y119850D01*
X473769Y119810D01*
X473855Y119762D01*
X473914Y119747D01*
X473969Y119723D01*
X474067Y119708D01*
X474163Y119683D01*
X474263Y119677D01*
X474283Y119673D01*
X474296Y119675D01*
X474324Y119673D01*
X776594Y119673D01*
X810830Y85436D01*
X810909Y85376D01*
X810981Y85308D01*
X811034Y85279D01*
X811082Y85242D01*
X811173Y85202D01*
X811259Y85154D01*
X811318Y85139D01*
X811373Y85115D01*
X811471Y85100D01*
X811567Y85075D01*
X811667Y85069D01*
X811688Y85065D01*
X811700Y85067D01*
X811728Y85065D01*
X814404Y85065D01*
X817368Y83837D01*
X819637Y81568D01*
X820865Y78604D01*
X820865Y75396D01*
X819637Y72432D01*
X817368Y70163D01*
X814404Y68935D01*
X811196Y68935D01*
X808232Y70163D01*
X805963Y72432D01*
X804735Y75396D01*
X804735Y78072D01*
X804723Y78170D01*
X804720Y78269D01*
X804703Y78328D01*
X804695Y78388D01*
X804659Y78480D01*
X804631Y78575D01*
X804601Y78627D01*
X804578Y78683D01*
X804520Y78763D01*
X804470Y78849D01*
X804404Y78924D01*
X804392Y78941D01*
X804382Y78949D01*
X804364Y78970D01*
X773178Y110156D01*
X773099Y110216D01*
X773027Y110284D01*
X772974Y110313D01*
X772926Y110350D01*
X772835Y110390D01*
X772749Y110438D01*
X772690Y110453D01*
X772635Y110477D01*
X772537Y110492D01*
X772441Y110517D01*
X772341Y110523D01*
X772320Y110527D01*
X772308Y110525D01*
X772280Y110527D01*
X475231Y110527D01*
X475093Y110510D01*
X474955Y110497D01*
X474936Y110490D01*
X474916Y110487D01*
X474787Y110436D01*
X474656Y110389D01*
X474639Y110378D01*
X474620Y110370D01*
X474508Y110289D01*
X474393Y110211D01*
X474379Y110195D01*
X474363Y110184D01*
X474274Y110076D01*
X474182Y109972D01*
X474173Y109954D01*
X474160Y109939D01*
X474101Y109813D01*
X474038Y109689D01*
X474033Y109669D01*
X474024Y109651D01*
X473998Y109514D01*
X473968Y109379D01*
X473969Y109358D01*
X473965Y109339D01*
X473973Y109200D01*
X473978Y109061D01*
X473983Y109041D01*
X473984Y109021D01*
X474027Y108889D01*
X474066Y108755D01*
X474076Y108738D01*
X474082Y108719D01*
X474157Y108601D01*
X474228Y108481D01*
X474246Y108460D01*
X474253Y108450D01*
X474268Y108436D01*
X474334Y108361D01*
X475350Y107344D01*
X475428Y107284D01*
X475500Y107216D01*
X475553Y107187D01*
X475601Y107150D01*
X475692Y107110D01*
X475779Y107062D01*
X475837Y107047D01*
X475893Y107023D01*
X475991Y107008D01*
X476087Y106983D01*
X476187Y106977D01*
X476207Y106973D01*
X476219Y106975D01*
X476247Y106973D01*
X763894Y106973D01*
X785430Y85436D01*
X785509Y85376D01*
X785581Y85308D01*
X785634Y85279D01*
X785682Y85242D01*
X785773Y85202D01*
X785859Y85154D01*
X785918Y85139D01*
X785973Y85115D01*
X786071Y85100D01*
X786167Y85075D01*
X786267Y85069D01*
X786288Y85065D01*
X786300Y85067D01*
X786328Y85065D01*
X789004Y85065D01*
X791968Y83837D01*
X794237Y81568D01*
X795465Y78604D01*
X795465Y75396D01*
X794237Y72432D01*
X791968Y70163D01*
X789004Y68935D01*
X785796Y68935D01*
X782832Y70163D01*
X780563Y72432D01*
X779335Y75396D01*
X779335Y78072D01*
X779323Y78170D01*
X779320Y78269D01*
X779303Y78328D01*
X779295Y78388D01*
X779259Y78480D01*
X779231Y78575D01*
X779201Y78627D01*
X779178Y78683D01*
X779120Y78763D01*
X779070Y78849D01*
X779004Y78924D01*
X778992Y78941D01*
X778982Y78949D01*
X778964Y78970D01*
X760478Y97456D01*
X760399Y97516D01*
X760327Y97584D01*
X760274Y97613D01*
X760226Y97650D01*
X760135Y97690D01*
X760049Y97738D01*
X759990Y97753D01*
X759935Y97777D01*
X759837Y97792D01*
X759741Y97817D01*
X759641Y97823D01*
X759620Y97827D01*
X759608Y97825D01*
X759580Y97827D01*
X477155Y97827D01*
X477017Y97810D01*
X476879Y97797D01*
X476860Y97790D01*
X476840Y97787D01*
X476710Y97736D01*
X476579Y97689D01*
X476563Y97678D01*
X476544Y97670D01*
X476432Y97589D01*
X476316Y97511D01*
X476303Y97495D01*
X476287Y97484D01*
X476198Y97376D01*
X476106Y97272D01*
X476097Y97254D01*
X476084Y97239D01*
X476024Y97113D01*
X475961Y96989D01*
X475957Y96969D01*
X475948Y96951D01*
X475922Y96814D01*
X475892Y96679D01*
X475892Y96658D01*
X475888Y96639D01*
X475897Y96500D01*
X475901Y96361D01*
X475907Y96341D01*
X475908Y96321D01*
X475951Y96189D01*
X475990Y96055D01*
X476000Y96038D01*
X476006Y96019D01*
X476080Y95901D01*
X476151Y95781D01*
X476170Y95760D01*
X476176Y95750D01*
X476191Y95736D01*
X476258Y95661D01*
X477274Y94644D01*
X477352Y94584D01*
X477424Y94516D01*
X477477Y94487D01*
X477525Y94450D01*
X477616Y94410D01*
X477703Y94362D01*
X477761Y94347D01*
X477817Y94323D01*
X477915Y94308D01*
X478010Y94283D01*
X478111Y94277D01*
X478131Y94273D01*
X478143Y94275D01*
X478171Y94273D01*
X751194Y94273D01*
X760030Y85436D01*
X760109Y85376D01*
X760181Y85308D01*
X760234Y85279D01*
X760282Y85242D01*
X760373Y85202D01*
X760459Y85154D01*
X760518Y85139D01*
X760573Y85115D01*
X760671Y85100D01*
X760767Y85075D01*
X760867Y85069D01*
X760888Y85065D01*
X760900Y85067D01*
X760928Y85065D01*
X763604Y85065D01*
X766568Y83837D01*
X768837Y81568D01*
X770065Y78604D01*
X770065Y75396D01*
X768837Y72432D01*
X766568Y70163D01*
X763604Y68935D01*
X760396Y68935D01*
X757432Y70163D01*
X755163Y72432D01*
X753935Y75396D01*
X753935Y78072D01*
X753923Y78170D01*
X753920Y78269D01*
X753903Y78328D01*
X753895Y78388D01*
X753859Y78480D01*
X753831Y78575D01*
X753801Y78627D01*
X753778Y78683D01*
X753720Y78763D01*
X753670Y78849D01*
X753604Y78924D01*
X753592Y78941D01*
X753582Y78949D01*
X753564Y78970D01*
X747778Y84756D01*
X747699Y84816D01*
X747627Y84884D01*
X747574Y84913D01*
X747526Y84950D01*
X747435Y84990D01*
X747349Y85038D01*
X747290Y85053D01*
X747235Y85077D01*
X747137Y85092D01*
X747041Y85117D01*
X746941Y85123D01*
X746920Y85127D01*
X746908Y85125D01*
X746880Y85127D01*
X742942Y85127D01*
X742804Y85110D01*
X742666Y85097D01*
X742647Y85090D01*
X742627Y85087D01*
X742497Y85036D01*
X742367Y84989D01*
X742350Y84978D01*
X742331Y84970D01*
X742219Y84889D01*
X742103Y84811D01*
X742090Y84795D01*
X742074Y84784D01*
X741985Y84676D01*
X741893Y84572D01*
X741884Y84554D01*
X741871Y84539D01*
X741812Y84413D01*
X741748Y84289D01*
X741744Y84269D01*
X741735Y84251D01*
X741709Y84114D01*
X741679Y83979D01*
X741679Y83958D01*
X741676Y83939D01*
X741684Y83800D01*
X741688Y83661D01*
X741694Y83641D01*
X741695Y83621D01*
X741738Y83489D01*
X741777Y83355D01*
X741787Y83338D01*
X741793Y83319D01*
X741868Y83201D01*
X741938Y83081D01*
X741957Y83060D01*
X741963Y83050D01*
X741978Y83036D01*
X742045Y82961D01*
X743437Y81568D01*
X744665Y78604D01*
X744665Y75396D01*
X743437Y72432D01*
X741168Y70163D01*
X738204Y68935D01*
X734996Y68935D01*
X732032Y70163D01*
X729763Y72432D01*
X728535Y75396D01*
X728535Y78604D01*
X729763Y81568D01*
X731155Y82961D01*
X731241Y83070D01*
X731329Y83177D01*
X731338Y83196D01*
X731350Y83212D01*
X731406Y83340D01*
X731465Y83465D01*
X731468Y83485D01*
X731477Y83504D01*
X731498Y83642D01*
X731524Y83778D01*
X731523Y83798D01*
X731526Y83818D01*
X731513Y83957D01*
X731505Y84095D01*
X731498Y84114D01*
X731497Y84134D01*
X731449Y84266D01*
X731407Y84397D01*
X731396Y84415D01*
X731389Y84434D01*
X731311Y84549D01*
X731237Y84666D01*
X731222Y84680D01*
X731210Y84697D01*
X731106Y84789D01*
X731005Y84884D01*
X730987Y84894D01*
X730972Y84907D01*
X730848Y84971D01*
X730726Y85038D01*
X730707Y85043D01*
X730689Y85052D01*
X730553Y85082D01*
X730418Y85117D01*
X730390Y85119D01*
X730378Y85122D01*
X730358Y85121D01*
X730258Y85127D01*
X717542Y85127D01*
X717404Y85110D01*
X717266Y85097D01*
X717247Y85090D01*
X717227Y85087D01*
X717097Y85036D01*
X716967Y84989D01*
X716950Y84978D01*
X716931Y84970D01*
X716819Y84889D01*
X716703Y84811D01*
X716690Y84795D01*
X716674Y84784D01*
X716585Y84676D01*
X716493Y84572D01*
X716484Y84554D01*
X716471Y84539D01*
X716412Y84413D01*
X716348Y84289D01*
X716344Y84269D01*
X716335Y84251D01*
X716309Y84114D01*
X716279Y83979D01*
X716279Y83958D01*
X716276Y83939D01*
X716284Y83800D01*
X716288Y83661D01*
X716294Y83641D01*
X716295Y83621D01*
X716338Y83489D01*
X716377Y83355D01*
X716387Y83338D01*
X716393Y83319D01*
X716468Y83201D01*
X716538Y83081D01*
X716557Y83060D01*
X716563Y83050D01*
X716578Y83036D01*
X716645Y82961D01*
X718037Y81568D01*
X719265Y78604D01*
X719265Y75396D01*
X718037Y72432D01*
X715768Y70163D01*
X712804Y68935D01*
X709596Y68935D01*
X706632Y70163D01*
X704363Y72432D01*
X703135Y75396D01*
X703135Y78604D01*
X704363Y81568D01*
X705755Y82961D01*
X705841Y83070D01*
X705929Y83177D01*
X705938Y83196D01*
X705950Y83212D01*
X706006Y83340D01*
X706065Y83465D01*
X706068Y83485D01*
X706077Y83504D01*
X706098Y83642D01*
X706124Y83778D01*
X706123Y83798D01*
X706126Y83818D01*
X706113Y83957D01*
X706105Y84095D01*
X706098Y84114D01*
X706097Y84134D01*
X706049Y84266D01*
X706007Y84397D01*
X705996Y84415D01*
X705989Y84434D01*
X705911Y84549D01*
X705837Y84666D01*
X705822Y84680D01*
X705810Y84697D01*
X705706Y84789D01*
X705605Y84884D01*
X705587Y84894D01*
X705572Y84907D01*
X705448Y84971D01*
X705326Y85038D01*
X705307Y85043D01*
X705289Y85052D01*
X705153Y85082D01*
X705018Y85117D01*
X704990Y85119D01*
X704978Y85122D01*
X704958Y85121D01*
X704858Y85127D01*
X692142Y85127D01*
X692004Y85110D01*
X691866Y85097D01*
X691847Y85090D01*
X691827Y85087D01*
X691697Y85036D01*
X691567Y84989D01*
X691550Y84978D01*
X691531Y84970D01*
X691419Y84889D01*
X691303Y84811D01*
X691290Y84795D01*
X691274Y84784D01*
X691185Y84676D01*
X691093Y84572D01*
X691084Y84554D01*
X691071Y84539D01*
X691012Y84413D01*
X690948Y84289D01*
X690944Y84269D01*
X690935Y84251D01*
X690909Y84114D01*
X690879Y83979D01*
X690879Y83958D01*
X690876Y83939D01*
X690884Y83800D01*
X690888Y83661D01*
X690894Y83641D01*
X690895Y83621D01*
X690938Y83489D01*
X690977Y83355D01*
X690987Y83338D01*
X690993Y83319D01*
X691068Y83201D01*
X691138Y83081D01*
X691157Y83060D01*
X691163Y83050D01*
X691178Y83036D01*
X691245Y82961D01*
X692637Y81568D01*
X693865Y78604D01*
X693865Y75396D01*
X692637Y72432D01*
X690368Y70163D01*
X687404Y68935D01*
X684196Y68935D01*
X681232Y70163D01*
X678963Y72432D01*
X677735Y75396D01*
X677735Y78604D01*
X678963Y81568D01*
X680355Y82961D01*
X680441Y83070D01*
X680529Y83177D01*
X680538Y83196D01*
X680550Y83212D01*
X680606Y83340D01*
X680665Y83465D01*
X680668Y83485D01*
X680677Y83504D01*
X680698Y83642D01*
X680724Y83778D01*
X680723Y83798D01*
X680726Y83818D01*
X680713Y83957D01*
X680705Y84095D01*
X680698Y84114D01*
X680697Y84134D01*
X680649Y84266D01*
X680607Y84397D01*
X680596Y84415D01*
X680589Y84434D01*
X680511Y84549D01*
X680437Y84666D01*
X680422Y84680D01*
X680410Y84697D01*
X680306Y84789D01*
X680205Y84884D01*
X680187Y84894D01*
X680172Y84907D01*
X680048Y84971D01*
X679926Y85038D01*
X679907Y85043D01*
X679889Y85052D01*
X679753Y85082D01*
X679618Y85117D01*
X679590Y85119D01*
X679578Y85122D01*
X679558Y85121D01*
X679458Y85127D01*
X666742Y85127D01*
X666604Y85110D01*
X666466Y85097D01*
X666447Y85090D01*
X666427Y85087D01*
X666297Y85036D01*
X666167Y84989D01*
X666150Y84978D01*
X666131Y84970D01*
X666019Y84889D01*
X665903Y84811D01*
X665890Y84795D01*
X665874Y84784D01*
X665785Y84676D01*
X665693Y84572D01*
X665684Y84554D01*
X665671Y84539D01*
X665612Y84413D01*
X665548Y84289D01*
X665544Y84269D01*
X665535Y84251D01*
X665509Y84114D01*
X665479Y83979D01*
X665479Y83958D01*
X665476Y83939D01*
X665484Y83800D01*
X665488Y83661D01*
X665494Y83641D01*
X665495Y83621D01*
X665538Y83489D01*
X665577Y83355D01*
X665587Y83338D01*
X665593Y83319D01*
X665668Y83201D01*
X665738Y83081D01*
X665757Y83060D01*
X665763Y83050D01*
X665778Y83036D01*
X665845Y82961D01*
X667237Y81568D01*
X668465Y78604D01*
X668465Y75396D01*
X667237Y72432D01*
X664968Y70163D01*
X662004Y68935D01*
X658796Y68935D01*
X655832Y70163D01*
X653563Y72432D01*
X652335Y75396D01*
X652335Y78604D01*
X653563Y81568D01*
X654955Y82961D01*
X655041Y83070D01*
X655129Y83177D01*
X655138Y83196D01*
X655150Y83212D01*
X655206Y83340D01*
X655265Y83465D01*
X655268Y83485D01*
X655277Y83504D01*
X655298Y83642D01*
X655324Y83778D01*
X655323Y83798D01*
X655326Y83818D01*
X655313Y83957D01*
X655305Y84095D01*
X655298Y84114D01*
X655297Y84134D01*
X655249Y84266D01*
X655207Y84397D01*
X655196Y84415D01*
X655189Y84434D01*
X655111Y84549D01*
X655037Y84666D01*
X655022Y84680D01*
X655010Y84697D01*
X654906Y84789D01*
X654805Y84884D01*
X654787Y84894D01*
X654772Y84907D01*
X654648Y84971D01*
X654526Y85038D01*
X654507Y85043D01*
X654489Y85052D01*
X654353Y85082D01*
X654218Y85117D01*
X654190Y85119D01*
X654178Y85122D01*
X654158Y85121D01*
X654058Y85127D01*
X641342Y85127D01*
X641204Y85110D01*
X641066Y85097D01*
X641047Y85090D01*
X641027Y85087D01*
X640897Y85036D01*
X640767Y84989D01*
X640750Y84978D01*
X640731Y84970D01*
X640619Y84889D01*
X640503Y84811D01*
X640490Y84795D01*
X640474Y84784D01*
X640385Y84676D01*
X640293Y84572D01*
X640284Y84554D01*
X640271Y84539D01*
X640212Y84413D01*
X640148Y84289D01*
X640144Y84269D01*
X640135Y84251D01*
X640109Y84114D01*
X640079Y83979D01*
X640079Y83958D01*
X640076Y83939D01*
X640084Y83800D01*
X640088Y83661D01*
X640094Y83641D01*
X640095Y83621D01*
X640138Y83489D01*
X640177Y83355D01*
X640187Y83338D01*
X640193Y83319D01*
X640268Y83201D01*
X640338Y83081D01*
X640357Y83060D01*
X640363Y83050D01*
X640378Y83036D01*
X640445Y82961D01*
X641837Y81568D01*
X643065Y78604D01*
X643065Y75396D01*
X641837Y72432D01*
X639568Y70163D01*
X636604Y68935D01*
X633396Y68935D01*
X630432Y70163D01*
X628163Y72432D01*
X626935Y75396D01*
X626935Y78604D01*
X628163Y81568D01*
X629555Y82961D01*
X629641Y83070D01*
X629729Y83177D01*
X629738Y83196D01*
X629750Y83212D01*
X629806Y83340D01*
X629865Y83465D01*
X629868Y83485D01*
X629877Y83504D01*
X629898Y83642D01*
X629924Y83778D01*
X629923Y83798D01*
X629926Y83818D01*
X629913Y83957D01*
X629905Y84095D01*
X629898Y84114D01*
X629897Y84134D01*
X629849Y84266D01*
X629807Y84397D01*
X629796Y84415D01*
X629789Y84434D01*
X629711Y84549D01*
X629637Y84666D01*
X629622Y84680D01*
X629610Y84697D01*
X629506Y84789D01*
X629405Y84884D01*
X629387Y84894D01*
X629372Y84907D01*
X629248Y84971D01*
X629126Y85038D01*
X629107Y85043D01*
X629089Y85052D01*
X628953Y85082D01*
X628818Y85117D01*
X628790Y85119D01*
X628778Y85122D01*
X628758Y85121D01*
X628658Y85127D01*
X615942Y85127D01*
X615804Y85110D01*
X615666Y85097D01*
X615647Y85090D01*
X615627Y85087D01*
X615497Y85036D01*
X615367Y84989D01*
X615350Y84978D01*
X615331Y84970D01*
X615219Y84889D01*
X615103Y84811D01*
X615090Y84795D01*
X615074Y84784D01*
X614985Y84676D01*
X614893Y84572D01*
X614884Y84554D01*
X614871Y84539D01*
X614812Y84413D01*
X614748Y84289D01*
X614744Y84269D01*
X614735Y84251D01*
X614709Y84114D01*
X614679Y83979D01*
X614679Y83958D01*
X614676Y83939D01*
X614684Y83800D01*
X614688Y83661D01*
X614694Y83641D01*
X614695Y83621D01*
X614738Y83489D01*
X614777Y83355D01*
X614787Y83338D01*
X614793Y83319D01*
X614868Y83201D01*
X614938Y83081D01*
X614957Y83060D01*
X614963Y83050D01*
X614978Y83036D01*
X615045Y82961D01*
X616437Y81568D01*
X617665Y78604D01*
X617665Y75396D01*
X616437Y72432D01*
X614168Y70163D01*
X611204Y68935D01*
X607996Y68935D01*
X605032Y70163D01*
X602763Y72432D01*
X601535Y75396D01*
X601535Y78604D01*
X602763Y81568D01*
X604155Y82961D01*
X604241Y83070D01*
X604329Y83177D01*
X604338Y83196D01*
X604350Y83212D01*
X604406Y83340D01*
X604465Y83465D01*
X604468Y83485D01*
X604477Y83504D01*
X604498Y83642D01*
X604524Y83778D01*
X604523Y83798D01*
X604526Y83818D01*
X604513Y83957D01*
X604505Y84095D01*
X604498Y84114D01*
X604497Y84134D01*
X604449Y84266D01*
X604407Y84397D01*
X604396Y84415D01*
X604389Y84434D01*
X604311Y84549D01*
X604237Y84666D01*
X604222Y84680D01*
X604210Y84697D01*
X604106Y84789D01*
X604005Y84884D01*
X603987Y84894D01*
X603972Y84907D01*
X603848Y84971D01*
X603726Y85038D01*
X603707Y85043D01*
X603689Y85052D01*
X603553Y85082D01*
X603418Y85117D01*
X603390Y85119D01*
X603378Y85122D01*
X603358Y85121D01*
X603258Y85127D01*
X590542Y85127D01*
X590404Y85110D01*
X590266Y85097D01*
X590247Y85090D01*
X590227Y85087D01*
X590097Y85036D01*
X589967Y84989D01*
X589950Y84978D01*
X589931Y84970D01*
X589819Y84889D01*
X589703Y84811D01*
X589690Y84795D01*
X589674Y84784D01*
X589585Y84676D01*
X589493Y84572D01*
X589484Y84554D01*
X589471Y84539D01*
X589412Y84413D01*
X589348Y84289D01*
X589344Y84269D01*
X589335Y84251D01*
X589309Y84114D01*
X589279Y83979D01*
X589279Y83958D01*
X589276Y83939D01*
X589284Y83800D01*
X589288Y83661D01*
X589294Y83641D01*
X589295Y83621D01*
X589338Y83489D01*
X589377Y83355D01*
X589387Y83338D01*
X589393Y83319D01*
X589468Y83201D01*
X589538Y83081D01*
X589557Y83060D01*
X589563Y83050D01*
X589578Y83036D01*
X589645Y82961D01*
X591037Y81568D01*
X592265Y78604D01*
X592265Y75396D01*
X591037Y72432D01*
X588768Y70163D01*
X585804Y68935D01*
X582596Y68935D01*
X579632Y70163D01*
X577363Y72432D01*
X576135Y75396D01*
X576135Y78604D01*
X577363Y81568D01*
X578755Y82961D01*
X578841Y83070D01*
X578929Y83177D01*
X578938Y83196D01*
X578950Y83212D01*
X579006Y83340D01*
X579065Y83465D01*
X579068Y83485D01*
X579077Y83504D01*
X579098Y83642D01*
X579124Y83778D01*
X579123Y83798D01*
X579126Y83818D01*
X579113Y83957D01*
X579105Y84095D01*
X579098Y84114D01*
X579097Y84134D01*
X579049Y84266D01*
X579007Y84397D01*
X578996Y84415D01*
X578989Y84434D01*
X578911Y84549D01*
X578837Y84666D01*
X578822Y84680D01*
X578810Y84697D01*
X578706Y84789D01*
X578605Y84884D01*
X578587Y84894D01*
X578572Y84907D01*
X578448Y84971D01*
X578326Y85038D01*
X578307Y85043D01*
X578289Y85052D01*
X578153Y85082D01*
X578018Y85117D01*
X577990Y85119D01*
X577978Y85122D01*
X577958Y85121D01*
X577858Y85127D01*
X566579Y85127D01*
X566441Y85110D01*
X566303Y85097D01*
X566284Y85090D01*
X566264Y85087D01*
X566134Y85036D01*
X566003Y84989D01*
X565987Y84978D01*
X565968Y84970D01*
X565855Y84889D01*
X565740Y84811D01*
X565727Y84795D01*
X565710Y84784D01*
X565622Y84676D01*
X565530Y84572D01*
X565521Y84554D01*
X565508Y84539D01*
X565448Y84413D01*
X565385Y84289D01*
X565381Y84269D01*
X565372Y84251D01*
X565346Y84115D01*
X565316Y83978D01*
X565316Y83958D01*
X565312Y83939D01*
X565321Y83800D01*
X565325Y83661D01*
X565331Y83641D01*
X565332Y83621D01*
X565375Y83488D01*
X565414Y83355D01*
X565424Y83338D01*
X565430Y83319D01*
X565505Y83201D01*
X565575Y83081D01*
X565594Y83060D01*
X565600Y83050D01*
X565615Y83036D01*
X565682Y82960D01*
X565726Y82916D01*
X566567Y81759D01*
X567215Y80486D01*
X567657Y79126D01*
X567677Y78999D01*
X559530Y78999D01*
X559412Y78984D01*
X559293Y78977D01*
X559255Y78964D01*
X559215Y78959D01*
X559104Y78916D01*
X558991Y78879D01*
X558957Y78857D01*
X558919Y78842D01*
X558823Y78773D01*
X558806Y78762D01*
X558782Y78776D01*
X558750Y78801D01*
X558643Y78852D01*
X558538Y78910D01*
X558499Y78920D01*
X558463Y78937D01*
X558346Y78959D01*
X558230Y78989D01*
X558170Y78993D01*
X558150Y78997D01*
X558130Y78995D01*
X558070Y78999D01*
X549923Y78999D01*
X549943Y79126D01*
X550385Y80486D01*
X551033Y81759D01*
X551874Y82916D01*
X551918Y82960D01*
X552004Y83070D01*
X552092Y83177D01*
X552101Y83196D01*
X552113Y83212D01*
X552169Y83340D01*
X552228Y83465D01*
X552232Y83485D01*
X552240Y83503D01*
X552261Y83641D01*
X552288Y83778D01*
X552286Y83798D01*
X552290Y83818D01*
X552277Y83956D01*
X552268Y84095D01*
X552262Y84114D01*
X552260Y84134D01*
X552213Y84265D01*
X552170Y84397D01*
X552159Y84415D01*
X552152Y84433D01*
X552074Y84548D01*
X552000Y84666D01*
X551985Y84680D01*
X551974Y84697D01*
X551870Y84789D01*
X551768Y84884D01*
X551750Y84894D01*
X551735Y84907D01*
X551611Y84970D01*
X551490Y85038D01*
X551470Y85043D01*
X551452Y85052D01*
X551316Y85082D01*
X551182Y85117D01*
X551154Y85119D01*
X551142Y85122D01*
X551121Y85121D01*
X551021Y85127D01*
X539742Y85127D01*
X539604Y85110D01*
X539466Y85097D01*
X539447Y85090D01*
X539427Y85087D01*
X539297Y85036D01*
X539167Y84989D01*
X539150Y84978D01*
X539131Y84970D01*
X539019Y84889D01*
X538903Y84811D01*
X538890Y84795D01*
X538874Y84784D01*
X538785Y84676D01*
X538693Y84572D01*
X538684Y84554D01*
X538671Y84539D01*
X538612Y84413D01*
X538548Y84289D01*
X538544Y84269D01*
X538535Y84251D01*
X538509Y84114D01*
X538479Y83979D01*
X538479Y83958D01*
X538476Y83939D01*
X538484Y83800D01*
X538488Y83661D01*
X538494Y83641D01*
X538495Y83621D01*
X538538Y83489D01*
X538577Y83355D01*
X538587Y83338D01*
X538593Y83319D01*
X538668Y83201D01*
X538738Y83081D01*
X538757Y83060D01*
X538763Y83050D01*
X538778Y83036D01*
X538845Y82961D01*
X540237Y81568D01*
X541465Y78604D01*
X541465Y75396D01*
X540237Y72432D01*
X537968Y70163D01*
X535004Y68935D01*
X531796Y68935D01*
X528832Y70163D01*
X526563Y72432D01*
X525335Y75396D01*
X525335Y78604D01*
X526563Y81568D01*
X527955Y82961D01*
X528041Y83070D01*
X528129Y83177D01*
X528138Y83196D01*
X528150Y83212D01*
X528206Y83340D01*
X528265Y83465D01*
X528268Y83485D01*
X528277Y83504D01*
X528298Y83642D01*
X528324Y83778D01*
X528323Y83798D01*
X528326Y83818D01*
X528313Y83957D01*
X528305Y84095D01*
X528298Y84114D01*
X528297Y84134D01*
X528249Y84266D01*
X528207Y84397D01*
X528196Y84415D01*
X528189Y84434D01*
X528111Y84549D01*
X528037Y84666D01*
X528022Y84680D01*
X528010Y84697D01*
X527906Y84789D01*
X527805Y84884D01*
X527787Y84894D01*
X527772Y84907D01*
X527648Y84971D01*
X527526Y85038D01*
X527507Y85043D01*
X527489Y85052D01*
X527353Y85082D01*
X527218Y85117D01*
X527190Y85119D01*
X527178Y85122D01*
X527158Y85121D01*
X527058Y85127D01*
X514342Y85127D01*
X514204Y85110D01*
X514066Y85097D01*
X514047Y85090D01*
X514027Y85087D01*
X513897Y85036D01*
X513767Y84989D01*
X513750Y84978D01*
X513731Y84970D01*
X513619Y84889D01*
X513503Y84811D01*
X513490Y84795D01*
X513474Y84784D01*
X513385Y84676D01*
X513293Y84572D01*
X513284Y84554D01*
X513271Y84539D01*
X513212Y84413D01*
X513148Y84289D01*
X513144Y84269D01*
X513135Y84251D01*
X513109Y84114D01*
X513079Y83979D01*
X513079Y83958D01*
X513076Y83939D01*
X513084Y83800D01*
X513088Y83661D01*
X513094Y83641D01*
X513095Y83621D01*
X513138Y83489D01*
X513177Y83355D01*
X513187Y83338D01*
X513193Y83319D01*
X513268Y83201D01*
X513338Y83081D01*
X513357Y83060D01*
X513363Y83050D01*
X513378Y83036D01*
X513445Y82961D01*
X514837Y81568D01*
X516065Y78604D01*
X516065Y75396D01*
X514837Y72432D01*
X512568Y70163D01*
X509604Y68935D01*
X506396Y68935D01*
X503432Y70163D01*
X501163Y72432D01*
X499935Y75396D01*
X499935Y78604D01*
X501163Y81568D01*
X502555Y82961D01*
X502641Y83070D01*
X502729Y83177D01*
X502738Y83196D01*
X502750Y83212D01*
X502806Y83340D01*
X502865Y83465D01*
X502868Y83485D01*
X502877Y83504D01*
X502898Y83642D01*
X502924Y83778D01*
X502923Y83798D01*
X502926Y83818D01*
X502913Y83957D01*
X502905Y84095D01*
X502898Y84114D01*
X502897Y84134D01*
X502849Y84266D01*
X502807Y84397D01*
X502796Y84415D01*
X502789Y84434D01*
X502711Y84549D01*
X502637Y84666D01*
X502622Y84680D01*
X502610Y84697D01*
X502506Y84789D01*
X502405Y84884D01*
X502387Y84894D01*
X502372Y84907D01*
X502248Y84971D01*
X502126Y85038D01*
X502107Y85043D01*
X502089Y85052D01*
X501953Y85082D01*
X501818Y85117D01*
X501790Y85119D01*
X501778Y85122D01*
X501758Y85121D01*
X501658Y85127D01*
X488942Y85127D01*
X488804Y85110D01*
X488666Y85097D01*
X488647Y85090D01*
X488627Y85087D01*
X488497Y85036D01*
X488367Y84989D01*
X488350Y84978D01*
X488331Y84970D01*
X488219Y84889D01*
X488103Y84811D01*
X488090Y84795D01*
X488074Y84784D01*
X487985Y84676D01*
X487893Y84572D01*
X487884Y84554D01*
X487871Y84539D01*
X487812Y84413D01*
X487748Y84289D01*
X487744Y84269D01*
X487735Y84251D01*
X487709Y84114D01*
X487679Y83979D01*
X487679Y83958D01*
X487676Y83939D01*
X487684Y83800D01*
X487688Y83661D01*
X487694Y83641D01*
X487695Y83621D01*
X487738Y83489D01*
X487777Y83355D01*
X487787Y83338D01*
X487793Y83319D01*
X487868Y83201D01*
X487938Y83081D01*
X487957Y83060D01*
X487963Y83050D01*
X487978Y83036D01*
X488045Y82961D01*
X489437Y81568D01*
X490665Y78604D01*
X490665Y75396D01*
X489437Y72432D01*
X487168Y70163D01*
X484204Y68935D01*
X480996Y68935D01*
X478032Y70163D01*
X477223Y70972D01*
X477184Y71002D01*
X477150Y71039D01*
X477059Y71099D01*
X476972Y71167D01*
X476926Y71186D01*
X476885Y71214D01*
X476781Y71249D01*
X476680Y71293D01*
X476631Y71301D01*
X476584Y71317D01*
X476474Y71326D01*
X476366Y71343D01*
X476316Y71338D01*
X476267Y71342D01*
X476158Y71323D01*
X476049Y71313D01*
X476002Y71296D01*
X475953Y71288D01*
X475853Y71243D01*
X475750Y71205D01*
X475709Y71178D01*
X475663Y71157D01*
X475578Y71089D01*
X475487Y71027D01*
X475454Y70990D01*
X475415Y70959D01*
X475349Y70871D01*
X475276Y70788D01*
X475254Y70744D01*
X475224Y70705D01*
X475153Y70560D01*
X473350Y66209D01*
X467991Y60850D01*
X460989Y57949D01*
X453411Y57949D01*
G37*
%LPD*%
%LPC*%
G36*
X734996Y221335D02*
X734996Y221335D01*
X732032Y222563D01*
X729763Y224832D01*
X728535Y227796D01*
X728535Y230472D01*
X728523Y230570D01*
X728520Y230669D01*
X728503Y230728D01*
X728495Y230788D01*
X728459Y230880D01*
X728431Y230975D01*
X728401Y231027D01*
X728378Y231083D01*
X728320Y231163D01*
X728270Y231249D01*
X728204Y231324D01*
X728192Y231341D01*
X728182Y231349D01*
X728164Y231370D01*
X649178Y310356D01*
X649099Y310416D01*
X649027Y310484D01*
X648974Y310513D01*
X648926Y310550D01*
X648835Y310590D01*
X648749Y310638D01*
X648690Y310653D01*
X648635Y310677D01*
X648537Y310692D01*
X648441Y310717D01*
X648341Y310723D01*
X648320Y310727D01*
X648308Y310725D01*
X648280Y310727D01*
X252106Y310727D01*
X239778Y323056D01*
X236727Y326106D01*
X236727Y334228D01*
X236724Y334257D01*
X236726Y334287D01*
X236704Y334415D01*
X236687Y334543D01*
X236677Y334571D01*
X236671Y334600D01*
X236618Y334719D01*
X236570Y334839D01*
X236553Y334863D01*
X236541Y334890D01*
X236460Y334991D01*
X236384Y335096D01*
X236361Y335115D01*
X236342Y335138D01*
X236239Y335216D01*
X236195Y335253D01*
X233547Y337900D01*
X232155Y341261D01*
X232155Y360139D01*
X233547Y363500D01*
X236120Y366073D01*
X239481Y367465D01*
X243119Y367465D01*
X246480Y366073D01*
X249053Y363500D01*
X250445Y360139D01*
X250445Y341261D01*
X249053Y337900D01*
X246416Y335264D01*
X246380Y335243D01*
X246359Y335222D01*
X246334Y335207D01*
X246245Y335112D01*
X246152Y335022D01*
X246136Y334997D01*
X246116Y334975D01*
X246053Y334861D01*
X245985Y334751D01*
X245977Y334722D01*
X245962Y334696D01*
X245930Y334571D01*
X245892Y334447D01*
X245890Y334417D01*
X245883Y334389D01*
X245873Y334228D01*
X245873Y330420D01*
X245885Y330322D01*
X245888Y330223D01*
X245905Y330164D01*
X245913Y330104D01*
X245949Y330012D01*
X245977Y329917D01*
X246007Y329865D01*
X246030Y329809D01*
X246088Y329728D01*
X246138Y329643D01*
X246204Y329568D01*
X246216Y329551D01*
X246226Y329543D01*
X246244Y329522D01*
X255522Y320244D01*
X255601Y320184D01*
X255673Y320116D01*
X255726Y320087D01*
X255774Y320050D01*
X255865Y320010D01*
X255951Y319962D01*
X256010Y319947D01*
X256065Y319923D01*
X256163Y319908D01*
X256259Y319883D01*
X256359Y319877D01*
X256380Y319873D01*
X256392Y319875D01*
X256420Y319873D01*
X487983Y319873D01*
X488128Y319891D01*
X488273Y319906D01*
X488285Y319911D01*
X488299Y319913D01*
X488434Y319966D01*
X488571Y320017D01*
X488582Y320025D01*
X488595Y320030D01*
X488712Y320115D01*
X488832Y320198D01*
X488841Y320209D01*
X488852Y320216D01*
X488945Y320328D01*
X489040Y320439D01*
X489046Y320451D01*
X489055Y320461D01*
X489117Y320593D01*
X489182Y320724D01*
X489185Y320737D01*
X489190Y320749D01*
X489217Y320891D01*
X489248Y321035D01*
X489248Y321048D01*
X489250Y321061D01*
X489241Y321205D01*
X489235Y321352D01*
X489231Y321365D01*
X489230Y321379D01*
X489186Y321517D01*
X489143Y321657D01*
X489136Y321669D01*
X489132Y321681D01*
X489055Y321804D01*
X488979Y321929D01*
X488969Y321939D01*
X488962Y321950D01*
X488856Y322050D01*
X488752Y322152D01*
X488737Y322162D01*
X488730Y322168D01*
X488716Y322176D01*
X488618Y322241D01*
X484404Y324674D01*
X479674Y329404D01*
X476330Y335196D01*
X474599Y341656D01*
X474599Y348344D01*
X476330Y354804D01*
X479674Y360596D01*
X484404Y365326D01*
X490196Y368670D01*
X496656Y370401D01*
X503344Y370401D01*
X509804Y368670D01*
X515596Y365326D01*
X520326Y360596D01*
X523670Y354804D01*
X525401Y348344D01*
X525401Y341656D01*
X523670Y335196D01*
X520326Y329404D01*
X515596Y324674D01*
X511382Y322241D01*
X511266Y322153D01*
X511148Y322068D01*
X511139Y322057D01*
X511129Y322049D01*
X511038Y321935D01*
X510945Y321823D01*
X510940Y321810D01*
X510931Y321800D01*
X510871Y321666D01*
X510810Y321535D01*
X510807Y321522D01*
X510802Y321509D01*
X510777Y321365D01*
X510750Y321222D01*
X510751Y321209D01*
X510749Y321196D01*
X510761Y321050D01*
X510770Y320905D01*
X510774Y320892D01*
X510775Y320879D01*
X510823Y320741D01*
X510868Y320603D01*
X510875Y320591D01*
X510879Y320578D01*
X510960Y320457D01*
X511038Y320334D01*
X511048Y320325D01*
X511055Y320313D01*
X511163Y320216D01*
X511270Y320116D01*
X511281Y320109D01*
X511291Y320100D01*
X511420Y320033D01*
X511548Y319962D01*
X511561Y319959D01*
X511573Y319953D01*
X511715Y319919D01*
X511856Y319883D01*
X511874Y319882D01*
X511883Y319880D01*
X511900Y319880D01*
X512017Y319873D01*
X652594Y319873D01*
X734630Y237836D01*
X734709Y237776D01*
X734781Y237708D01*
X734834Y237679D01*
X734882Y237642D01*
X734973Y237602D01*
X735059Y237554D01*
X735118Y237539D01*
X735173Y237515D01*
X735271Y237500D01*
X735367Y237475D01*
X735467Y237469D01*
X735488Y237465D01*
X735500Y237467D01*
X735528Y237465D01*
X738204Y237465D01*
X741168Y236237D01*
X743437Y233968D01*
X744665Y231004D01*
X744665Y227796D01*
X743437Y224832D01*
X741168Y222563D01*
X738204Y221335D01*
X734996Y221335D01*
G37*
%LPD*%
%LPC*%
G36*
X453411Y210349D02*
X453411Y210349D01*
X446409Y213250D01*
X441050Y218609D01*
X438149Y225611D01*
X438149Y233189D01*
X441050Y240191D01*
X445919Y245061D01*
X446004Y245170D01*
X446093Y245277D01*
X446101Y245296D01*
X446114Y245312D01*
X446169Y245440D01*
X446228Y245565D01*
X446232Y245585D01*
X446240Y245604D01*
X446262Y245742D01*
X446288Y245878D01*
X446287Y245898D01*
X446290Y245918D01*
X446277Y246057D01*
X446268Y246195D01*
X446262Y246214D01*
X446260Y246234D01*
X446213Y246366D01*
X446170Y246497D01*
X446159Y246515D01*
X446152Y246534D01*
X446074Y246649D01*
X446000Y246766D01*
X445985Y246780D01*
X445974Y246797D01*
X445870Y246889D01*
X445768Y246984D01*
X445751Y246994D01*
X445735Y247007D01*
X445611Y247071D01*
X445490Y247138D01*
X445470Y247143D01*
X445452Y247152D01*
X445316Y247182D01*
X445182Y247217D01*
X445154Y247219D01*
X445142Y247222D01*
X445121Y247221D01*
X445021Y247227D01*
X160506Y247227D01*
X109727Y298006D01*
X109727Y334228D01*
X109724Y334257D01*
X109726Y334287D01*
X109704Y334415D01*
X109687Y334543D01*
X109677Y334571D01*
X109671Y334600D01*
X109618Y334719D01*
X109570Y334839D01*
X109553Y334863D01*
X109541Y334890D01*
X109460Y334991D01*
X109384Y335096D01*
X109361Y335115D01*
X109342Y335138D01*
X109239Y335216D01*
X109195Y335253D01*
X106547Y337900D01*
X105155Y341261D01*
X105155Y360139D01*
X106547Y363500D01*
X109120Y366073D01*
X112481Y367465D01*
X116119Y367465D01*
X119480Y366073D01*
X122053Y363500D01*
X123445Y360139D01*
X123445Y341261D01*
X122053Y337900D01*
X119416Y335264D01*
X119380Y335243D01*
X119359Y335222D01*
X119334Y335207D01*
X119245Y335112D01*
X119152Y335022D01*
X119136Y334997D01*
X119116Y334975D01*
X119053Y334861D01*
X118985Y334751D01*
X118977Y334722D01*
X118962Y334696D01*
X118930Y334571D01*
X118892Y334447D01*
X118890Y334417D01*
X118883Y334389D01*
X118873Y334228D01*
X118873Y302320D01*
X118885Y302222D01*
X118888Y302123D01*
X118905Y302064D01*
X118913Y302004D01*
X118949Y301912D01*
X118977Y301817D01*
X119007Y301765D01*
X119030Y301709D01*
X119088Y301629D01*
X119138Y301543D01*
X119204Y301468D01*
X119216Y301451D01*
X119226Y301443D01*
X119244Y301422D01*
X163922Y256744D01*
X164001Y256684D01*
X164073Y256616D01*
X164126Y256587D01*
X164174Y256550D01*
X164265Y256510D01*
X164351Y256462D01*
X164410Y256447D01*
X164465Y256423D01*
X164563Y256408D01*
X164659Y256383D01*
X164759Y256377D01*
X164780Y256373D01*
X164792Y256375D01*
X164820Y256373D01*
X589094Y256373D01*
X607630Y237836D01*
X607709Y237776D01*
X607781Y237708D01*
X607834Y237679D01*
X607882Y237642D01*
X607973Y237602D01*
X608059Y237554D01*
X608118Y237539D01*
X608173Y237515D01*
X608271Y237500D01*
X608367Y237475D01*
X608467Y237469D01*
X608488Y237465D01*
X608500Y237467D01*
X608528Y237465D01*
X611204Y237465D01*
X614168Y236237D01*
X616437Y233968D01*
X617665Y231004D01*
X617665Y227796D01*
X616437Y224832D01*
X614168Y222563D01*
X611204Y221335D01*
X607996Y221335D01*
X605032Y222563D01*
X602763Y224832D01*
X601535Y227796D01*
X601535Y230472D01*
X601523Y230570D01*
X601520Y230669D01*
X601503Y230728D01*
X601495Y230788D01*
X601459Y230880D01*
X601431Y230975D01*
X601401Y231027D01*
X601378Y231083D01*
X601320Y231163D01*
X601270Y231249D01*
X601204Y231324D01*
X601192Y231341D01*
X601182Y231349D01*
X601164Y231370D01*
X585678Y246856D01*
X585599Y246916D01*
X585527Y246984D01*
X585474Y247013D01*
X585426Y247050D01*
X585335Y247090D01*
X585249Y247138D01*
X585190Y247153D01*
X585135Y247177D01*
X585037Y247192D01*
X584941Y247217D01*
X584841Y247223D01*
X584820Y247227D01*
X584808Y247225D01*
X584780Y247227D01*
X469379Y247227D01*
X469241Y247210D01*
X469102Y247197D01*
X469083Y247190D01*
X469063Y247187D01*
X468934Y247136D01*
X468803Y247089D01*
X468786Y247078D01*
X468768Y247070D01*
X468655Y246989D01*
X468540Y246911D01*
X468527Y246895D01*
X468510Y246884D01*
X468421Y246776D01*
X468330Y246672D01*
X468320Y246654D01*
X468307Y246639D01*
X468248Y246513D01*
X468185Y246389D01*
X468180Y246369D01*
X468172Y246351D01*
X468146Y246215D01*
X468115Y246079D01*
X468116Y246058D01*
X468112Y246039D01*
X468121Y245900D01*
X468125Y245761D01*
X468131Y245741D01*
X468132Y245721D01*
X468175Y245589D01*
X468213Y245455D01*
X468224Y245438D01*
X468230Y245419D01*
X468304Y245301D01*
X468375Y245181D01*
X468393Y245160D01*
X468400Y245150D01*
X468415Y245136D01*
X468481Y245061D01*
X473350Y240191D01*
X475153Y235840D01*
X475177Y235797D01*
X475194Y235750D01*
X475256Y235659D01*
X475310Y235564D01*
X475345Y235528D01*
X475373Y235487D01*
X475455Y235414D01*
X475532Y235335D01*
X475574Y235309D01*
X475611Y235276D01*
X475709Y235227D01*
X475803Y235169D01*
X475850Y235154D01*
X475894Y235132D01*
X476002Y235108D01*
X476107Y235075D01*
X476156Y235073D01*
X476205Y235062D01*
X476315Y235066D01*
X476424Y235060D01*
X476473Y235070D01*
X476523Y235072D01*
X476628Y235102D01*
X476736Y235125D01*
X476781Y235147D01*
X476828Y235160D01*
X476923Y235216D01*
X477022Y235264D01*
X477059Y235297D01*
X477102Y235322D01*
X477223Y235428D01*
X478032Y236237D01*
X480996Y237465D01*
X484204Y237465D01*
X487168Y236237D01*
X489437Y233968D01*
X490665Y231004D01*
X490665Y227796D01*
X489437Y224832D01*
X487168Y222563D01*
X484204Y221335D01*
X480996Y221335D01*
X478032Y222563D01*
X477223Y223372D01*
X477184Y223402D01*
X477150Y223439D01*
X477059Y223499D01*
X476972Y223567D01*
X476926Y223586D01*
X476885Y223614D01*
X476781Y223649D01*
X476680Y223693D01*
X476631Y223701D01*
X476584Y223717D01*
X476474Y223726D01*
X476366Y223743D01*
X476316Y223738D01*
X476267Y223742D01*
X476158Y223723D01*
X476049Y223713D01*
X476002Y223696D01*
X475953Y223688D01*
X475853Y223643D01*
X475750Y223605D01*
X475709Y223578D01*
X475663Y223557D01*
X475578Y223489D01*
X475487Y223427D01*
X475454Y223390D01*
X475415Y223359D01*
X475349Y223271D01*
X475276Y223188D01*
X475254Y223144D01*
X475224Y223105D01*
X475153Y222960D01*
X473350Y218609D01*
X467991Y213250D01*
X460989Y210349D01*
X453411Y210349D01*
G37*
%LPD*%
%LPC*%
G36*
X859811Y57949D02*
X859811Y57949D01*
X852809Y60850D01*
X847450Y66209D01*
X845647Y70560D01*
X845623Y70603D01*
X845606Y70650D01*
X845544Y70741D01*
X845490Y70836D01*
X845455Y70872D01*
X845427Y70913D01*
X845345Y70986D01*
X845268Y71065D01*
X845226Y71091D01*
X845189Y71124D01*
X845091Y71173D01*
X844997Y71231D01*
X844950Y71246D01*
X844905Y71268D01*
X844798Y71292D01*
X844693Y71325D01*
X844644Y71327D01*
X844595Y71338D01*
X844485Y71334D01*
X844376Y71340D01*
X844327Y71330D01*
X844277Y71328D01*
X844172Y71298D01*
X844064Y71275D01*
X844019Y71254D01*
X843972Y71240D01*
X843877Y71184D01*
X843778Y71136D01*
X843741Y71103D01*
X843698Y71078D01*
X843577Y70972D01*
X842768Y70163D01*
X839804Y68935D01*
X836596Y68935D01*
X833632Y70163D01*
X831363Y72432D01*
X830135Y75396D01*
X830135Y78072D01*
X830123Y78170D01*
X830120Y78269D01*
X830103Y78328D01*
X830095Y78388D01*
X830059Y78480D01*
X830031Y78575D01*
X830001Y78627D01*
X829978Y78683D01*
X829920Y78763D01*
X829870Y78849D01*
X829804Y78924D01*
X829792Y78941D01*
X829782Y78949D01*
X829764Y78970D01*
X785878Y122856D01*
X785799Y122916D01*
X785727Y122984D01*
X785674Y123013D01*
X785626Y123050D01*
X785535Y123090D01*
X785449Y123138D01*
X785390Y123153D01*
X785335Y123177D01*
X785237Y123192D01*
X785141Y123217D01*
X785041Y123223D01*
X785020Y123227D01*
X785008Y123225D01*
X784980Y123227D01*
X480706Y123227D01*
X395734Y208200D01*
X395655Y208260D01*
X395583Y208328D01*
X395530Y208357D01*
X395482Y208394D01*
X395391Y208434D01*
X395305Y208482D01*
X395246Y208497D01*
X395191Y208521D01*
X395093Y208536D01*
X394997Y208561D01*
X394897Y208567D01*
X394876Y208571D01*
X394864Y208569D01*
X394836Y208571D01*
X390333Y208571D01*
X385571Y213333D01*
X385571Y220067D01*
X390333Y224829D01*
X397067Y224829D01*
X401829Y220067D01*
X401829Y215564D01*
X401841Y215466D01*
X401844Y215367D01*
X401861Y215308D01*
X401869Y215248D01*
X401905Y215156D01*
X401933Y215061D01*
X401963Y215009D01*
X401986Y214953D01*
X402044Y214873D01*
X402094Y214787D01*
X402160Y214712D01*
X402172Y214695D01*
X402182Y214687D01*
X402200Y214666D01*
X484122Y132744D01*
X484201Y132684D01*
X484273Y132616D01*
X484326Y132587D01*
X484374Y132550D01*
X484465Y132510D01*
X484551Y132462D01*
X484610Y132447D01*
X484665Y132423D01*
X484763Y132408D01*
X484859Y132383D01*
X484959Y132377D01*
X484980Y132373D01*
X484992Y132375D01*
X485020Y132373D01*
X789294Y132373D01*
X836230Y85436D01*
X836309Y85376D01*
X836381Y85308D01*
X836434Y85279D01*
X836482Y85242D01*
X836573Y85202D01*
X836659Y85154D01*
X836718Y85139D01*
X836773Y85115D01*
X836871Y85100D01*
X836967Y85075D01*
X837067Y85069D01*
X837088Y85065D01*
X837100Y85067D01*
X837128Y85065D01*
X839804Y85065D01*
X842768Y83837D01*
X843577Y83028D01*
X843616Y82998D01*
X843650Y82961D01*
X843742Y82900D01*
X843828Y82833D01*
X843874Y82814D01*
X843915Y82786D01*
X844019Y82751D01*
X844120Y82707D01*
X844169Y82699D01*
X844216Y82683D01*
X844326Y82674D01*
X844434Y82657D01*
X844484Y82662D01*
X844533Y82658D01*
X844642Y82677D01*
X844751Y82687D01*
X844798Y82704D01*
X844847Y82712D01*
X844947Y82757D01*
X845050Y82794D01*
X845091Y82822D01*
X845137Y82843D01*
X845222Y82911D01*
X845313Y82973D01*
X845346Y83010D01*
X845385Y83041D01*
X845451Y83129D01*
X845524Y83211D01*
X845546Y83256D01*
X845576Y83295D01*
X845647Y83440D01*
X847450Y87791D01*
X852809Y93150D01*
X859811Y96051D01*
X867389Y96051D01*
X874391Y93150D01*
X879750Y87791D01*
X882651Y80789D01*
X882651Y73211D01*
X879750Y66209D01*
X874391Y60850D01*
X867389Y57949D01*
X859811Y57949D01*
G37*
%LPD*%
%LPC*%
G36*
X684196Y221335D02*
X684196Y221335D01*
X681232Y222563D01*
X678963Y224832D01*
X677735Y227796D01*
X677735Y230472D01*
X677723Y230570D01*
X677720Y230669D01*
X677703Y230728D01*
X677695Y230788D01*
X677659Y230880D01*
X677631Y230975D01*
X677601Y231027D01*
X677578Y231083D01*
X677520Y231163D01*
X677470Y231249D01*
X677404Y231324D01*
X677392Y231341D01*
X677382Y231349D01*
X677364Y231370D01*
X623778Y284956D01*
X623699Y285016D01*
X623627Y285084D01*
X623574Y285113D01*
X623526Y285150D01*
X623435Y285190D01*
X623349Y285238D01*
X623290Y285253D01*
X623235Y285277D01*
X623137Y285292D01*
X623041Y285317D01*
X622941Y285323D01*
X622920Y285327D01*
X622908Y285325D01*
X622880Y285327D01*
X201306Y285327D01*
X185927Y300706D01*
X185927Y334228D01*
X185924Y334257D01*
X185926Y334287D01*
X185904Y334415D01*
X185887Y334543D01*
X185877Y334571D01*
X185871Y334600D01*
X185818Y334719D01*
X185770Y334839D01*
X185753Y334863D01*
X185741Y334890D01*
X185660Y334991D01*
X185584Y335096D01*
X185561Y335115D01*
X185542Y335138D01*
X185439Y335216D01*
X185395Y335253D01*
X182747Y337900D01*
X181355Y341261D01*
X181355Y360139D01*
X182747Y363500D01*
X185320Y366073D01*
X188681Y367465D01*
X192319Y367465D01*
X195680Y366073D01*
X198253Y363500D01*
X199645Y360139D01*
X199645Y341261D01*
X198253Y337900D01*
X195616Y335264D01*
X195580Y335243D01*
X195559Y335222D01*
X195534Y335207D01*
X195445Y335112D01*
X195352Y335022D01*
X195336Y334997D01*
X195316Y334975D01*
X195253Y334861D01*
X195185Y334751D01*
X195177Y334722D01*
X195162Y334696D01*
X195130Y334571D01*
X195092Y334447D01*
X195090Y334417D01*
X195083Y334389D01*
X195073Y334228D01*
X195073Y305020D01*
X195085Y304922D01*
X195088Y304823D01*
X195105Y304764D01*
X195113Y304704D01*
X195149Y304612D01*
X195177Y304517D01*
X195207Y304465D01*
X195230Y304409D01*
X195288Y304329D01*
X195338Y304243D01*
X195404Y304168D01*
X195416Y304151D01*
X195426Y304143D01*
X195444Y304122D01*
X204722Y294844D01*
X204801Y294784D01*
X204873Y294716D01*
X204926Y294687D01*
X204974Y294650D01*
X205065Y294610D01*
X205151Y294562D01*
X205210Y294547D01*
X205265Y294523D01*
X205363Y294508D01*
X205459Y294483D01*
X205559Y294477D01*
X205580Y294473D01*
X205592Y294475D01*
X205620Y294473D01*
X627194Y294473D01*
X683830Y237836D01*
X683909Y237776D01*
X683981Y237708D01*
X684034Y237679D01*
X684082Y237642D01*
X684173Y237602D01*
X684259Y237554D01*
X684318Y237539D01*
X684373Y237515D01*
X684471Y237500D01*
X684567Y237475D01*
X684667Y237469D01*
X684688Y237465D01*
X684700Y237467D01*
X684728Y237465D01*
X687404Y237465D01*
X690368Y236237D01*
X692637Y233968D01*
X693865Y231004D01*
X693865Y227796D01*
X692637Y224832D01*
X690368Y222563D01*
X687404Y221335D01*
X684196Y221335D01*
G37*
%LPD*%
%LPC*%
G36*
X658796Y221335D02*
X658796Y221335D01*
X655832Y222563D01*
X653563Y224832D01*
X652335Y227796D01*
X652335Y230472D01*
X652323Y230570D01*
X652320Y230669D01*
X652303Y230728D01*
X652295Y230788D01*
X652259Y230880D01*
X652231Y230975D01*
X652201Y231027D01*
X652178Y231083D01*
X652120Y231163D01*
X652070Y231249D01*
X652004Y231324D01*
X651992Y231341D01*
X651982Y231349D01*
X651964Y231370D01*
X611078Y272256D01*
X610999Y272316D01*
X610927Y272384D01*
X610874Y272413D01*
X610826Y272450D01*
X610735Y272490D01*
X610649Y272538D01*
X610590Y272553D01*
X610535Y272577D01*
X610437Y272592D01*
X610341Y272617D01*
X610241Y272623D01*
X610220Y272627D01*
X610208Y272625D01*
X610180Y272627D01*
X188606Y272627D01*
X160527Y300706D01*
X160527Y334228D01*
X160524Y334257D01*
X160526Y334287D01*
X160504Y334415D01*
X160487Y334543D01*
X160477Y334571D01*
X160471Y334600D01*
X160418Y334719D01*
X160370Y334839D01*
X160353Y334863D01*
X160341Y334890D01*
X160260Y334991D01*
X160184Y335096D01*
X160161Y335115D01*
X160142Y335138D01*
X160039Y335216D01*
X159995Y335253D01*
X157347Y337900D01*
X155955Y341261D01*
X155955Y360139D01*
X157347Y363500D01*
X159920Y366073D01*
X163281Y367465D01*
X166919Y367465D01*
X170280Y366073D01*
X172853Y363500D01*
X174245Y360139D01*
X174245Y341261D01*
X172853Y337900D01*
X170216Y335264D01*
X170180Y335243D01*
X170159Y335222D01*
X170134Y335207D01*
X170045Y335112D01*
X169952Y335022D01*
X169936Y334997D01*
X169916Y334975D01*
X169853Y334861D01*
X169785Y334751D01*
X169777Y334722D01*
X169762Y334696D01*
X169730Y334571D01*
X169692Y334447D01*
X169690Y334417D01*
X169683Y334389D01*
X169673Y334228D01*
X169673Y305020D01*
X169685Y304922D01*
X169688Y304823D01*
X169705Y304764D01*
X169713Y304704D01*
X169749Y304612D01*
X169777Y304517D01*
X169807Y304465D01*
X169830Y304409D01*
X169888Y304329D01*
X169938Y304243D01*
X170004Y304168D01*
X170016Y304151D01*
X170026Y304143D01*
X170044Y304122D01*
X192022Y282144D01*
X192101Y282084D01*
X192173Y282016D01*
X192226Y281987D01*
X192274Y281950D01*
X192365Y281910D01*
X192451Y281862D01*
X192510Y281847D01*
X192565Y281823D01*
X192663Y281808D01*
X192759Y281783D01*
X192859Y281777D01*
X192880Y281773D01*
X192892Y281775D01*
X192920Y281773D01*
X614494Y281773D01*
X658430Y237836D01*
X658509Y237776D01*
X658581Y237708D01*
X658634Y237679D01*
X658682Y237642D01*
X658773Y237602D01*
X658859Y237554D01*
X658918Y237539D01*
X658973Y237515D01*
X659071Y237500D01*
X659167Y237475D01*
X659267Y237469D01*
X659288Y237465D01*
X659300Y237467D01*
X659328Y237465D01*
X662004Y237465D01*
X664968Y236237D01*
X667237Y233968D01*
X668465Y231004D01*
X668465Y227796D01*
X667237Y224832D01*
X664968Y222563D01*
X662004Y221335D01*
X658796Y221335D01*
G37*
%LPD*%
%LPC*%
G36*
X633396Y221335D02*
X633396Y221335D01*
X630432Y222563D01*
X628163Y224832D01*
X626935Y227796D01*
X626935Y230472D01*
X626923Y230570D01*
X626920Y230669D01*
X626903Y230728D01*
X626895Y230788D01*
X626859Y230880D01*
X626831Y230975D01*
X626801Y231027D01*
X626778Y231083D01*
X626720Y231163D01*
X626670Y231249D01*
X626604Y231324D01*
X626592Y231341D01*
X626582Y231349D01*
X626564Y231370D01*
X598378Y259556D01*
X598299Y259616D01*
X598227Y259684D01*
X598174Y259713D01*
X598126Y259750D01*
X598035Y259790D01*
X597949Y259838D01*
X597890Y259853D01*
X597835Y259877D01*
X597737Y259892D01*
X597641Y259917D01*
X597541Y259923D01*
X597520Y259927D01*
X597508Y259925D01*
X597480Y259927D01*
X175906Y259927D01*
X135127Y300706D01*
X135127Y334228D01*
X135124Y334257D01*
X135126Y334287D01*
X135104Y334415D01*
X135087Y334543D01*
X135077Y334571D01*
X135071Y334600D01*
X135018Y334719D01*
X134970Y334839D01*
X134953Y334863D01*
X134941Y334890D01*
X134860Y334991D01*
X134784Y335096D01*
X134761Y335115D01*
X134742Y335138D01*
X134639Y335216D01*
X134595Y335253D01*
X131947Y337900D01*
X130555Y341261D01*
X130555Y360139D01*
X131947Y363500D01*
X134520Y366073D01*
X137881Y367465D01*
X141519Y367465D01*
X144880Y366073D01*
X147453Y363500D01*
X148845Y360139D01*
X148845Y341261D01*
X147453Y337900D01*
X144816Y335264D01*
X144780Y335243D01*
X144759Y335222D01*
X144734Y335207D01*
X144645Y335112D01*
X144552Y335022D01*
X144536Y334997D01*
X144516Y334975D01*
X144453Y334861D01*
X144385Y334751D01*
X144377Y334722D01*
X144362Y334696D01*
X144330Y334571D01*
X144292Y334447D01*
X144290Y334417D01*
X144283Y334389D01*
X144273Y334228D01*
X144273Y305020D01*
X144285Y304922D01*
X144288Y304823D01*
X144305Y304764D01*
X144313Y304704D01*
X144349Y304612D01*
X144377Y304517D01*
X144407Y304465D01*
X144430Y304409D01*
X144488Y304329D01*
X144538Y304243D01*
X144604Y304168D01*
X144616Y304151D01*
X144626Y304143D01*
X144644Y304122D01*
X179322Y269444D01*
X179401Y269384D01*
X179473Y269316D01*
X179526Y269287D01*
X179574Y269250D01*
X179665Y269210D01*
X179751Y269162D01*
X179810Y269147D01*
X179865Y269123D01*
X179963Y269108D01*
X180059Y269083D01*
X180159Y269077D01*
X180180Y269073D01*
X180192Y269075D01*
X180220Y269073D01*
X601794Y269073D01*
X633030Y237836D01*
X633109Y237776D01*
X633181Y237708D01*
X633234Y237679D01*
X633282Y237642D01*
X633373Y237602D01*
X633459Y237554D01*
X633518Y237539D01*
X633573Y237515D01*
X633671Y237500D01*
X633767Y237475D01*
X633867Y237469D01*
X633888Y237465D01*
X633900Y237467D01*
X633928Y237465D01*
X636604Y237465D01*
X639568Y236237D01*
X641837Y233968D01*
X643065Y231004D01*
X643065Y227796D01*
X641837Y224832D01*
X639568Y222563D01*
X636604Y221335D01*
X633396Y221335D01*
G37*
%LPD*%
%LPC*%
G36*
X709596Y221335D02*
X709596Y221335D01*
X706632Y222563D01*
X704363Y224832D01*
X703135Y227796D01*
X703135Y230472D01*
X703123Y230570D01*
X703120Y230669D01*
X703103Y230728D01*
X703095Y230788D01*
X703059Y230880D01*
X703031Y230975D01*
X703001Y231027D01*
X702978Y231083D01*
X702920Y231163D01*
X702870Y231249D01*
X702804Y231324D01*
X702792Y231341D01*
X702782Y231349D01*
X702764Y231370D01*
X636478Y297656D01*
X636399Y297716D01*
X636327Y297784D01*
X636274Y297813D01*
X636226Y297850D01*
X636135Y297890D01*
X636049Y297938D01*
X635990Y297953D01*
X635935Y297977D01*
X635837Y297992D01*
X635741Y298017D01*
X635641Y298023D01*
X635620Y298027D01*
X635608Y298025D01*
X635580Y298027D01*
X226706Y298027D01*
X211327Y313406D01*
X211327Y334228D01*
X211324Y334257D01*
X211326Y334287D01*
X211304Y334415D01*
X211287Y334543D01*
X211277Y334571D01*
X211271Y334600D01*
X211218Y334719D01*
X211170Y334839D01*
X211153Y334863D01*
X211141Y334890D01*
X211060Y334991D01*
X210984Y335096D01*
X210961Y335115D01*
X210942Y335138D01*
X210839Y335216D01*
X210795Y335253D01*
X208147Y337900D01*
X206755Y341261D01*
X206755Y360139D01*
X208147Y363500D01*
X210720Y366073D01*
X214081Y367465D01*
X217719Y367465D01*
X221080Y366073D01*
X223653Y363500D01*
X225045Y360139D01*
X225045Y341261D01*
X223653Y337900D01*
X221016Y335264D01*
X220980Y335243D01*
X220959Y335222D01*
X220934Y335207D01*
X220845Y335112D01*
X220752Y335022D01*
X220736Y334997D01*
X220716Y334975D01*
X220653Y334861D01*
X220585Y334751D01*
X220577Y334722D01*
X220562Y334696D01*
X220530Y334571D01*
X220492Y334447D01*
X220490Y334417D01*
X220483Y334389D01*
X220473Y334228D01*
X220473Y317720D01*
X220485Y317622D01*
X220488Y317523D01*
X220505Y317464D01*
X220513Y317404D01*
X220549Y317312D01*
X220577Y317217D01*
X220607Y317165D01*
X220630Y317109D01*
X220688Y317029D01*
X220738Y316943D01*
X220804Y316868D01*
X220816Y316851D01*
X220826Y316843D01*
X220844Y316822D01*
X230122Y307544D01*
X230201Y307484D01*
X230273Y307416D01*
X230326Y307387D01*
X230374Y307350D01*
X230465Y307310D01*
X230551Y307262D01*
X230610Y307247D01*
X230665Y307223D01*
X230763Y307208D01*
X230859Y307183D01*
X230959Y307177D01*
X230980Y307173D01*
X230992Y307175D01*
X231020Y307173D01*
X639894Y307173D01*
X709230Y237836D01*
X709309Y237776D01*
X709381Y237708D01*
X709434Y237679D01*
X709482Y237642D01*
X709573Y237602D01*
X709659Y237554D01*
X709718Y237539D01*
X709773Y237515D01*
X709871Y237500D01*
X709967Y237475D01*
X710067Y237469D01*
X710088Y237465D01*
X710100Y237467D01*
X710128Y237465D01*
X712804Y237465D01*
X715768Y236237D01*
X718037Y233968D01*
X719265Y231004D01*
X719265Y227796D01*
X718037Y224832D01*
X715768Y222563D01*
X712804Y221335D01*
X709596Y221335D01*
G37*
%LPD*%
%LPC*%
G36*
X859811Y210349D02*
X859811Y210349D01*
X852809Y213250D01*
X847450Y218609D01*
X846645Y220552D01*
X846630Y220577D01*
X846621Y220605D01*
X846552Y220715D01*
X846487Y220828D01*
X846467Y220849D01*
X846451Y220874D01*
X846356Y220963D01*
X846266Y221056D01*
X846241Y221072D01*
X846219Y221092D01*
X846105Y221155D01*
X845995Y221223D01*
X845967Y221231D01*
X845941Y221246D01*
X845815Y221278D01*
X845691Y221316D01*
X845661Y221318D01*
X845633Y221325D01*
X845472Y221335D01*
X831028Y221335D01*
X830135Y222228D01*
X830135Y236572D01*
X831028Y237465D01*
X845472Y237465D01*
X845501Y237468D01*
X845531Y237466D01*
X845659Y237488D01*
X845788Y237505D01*
X845815Y237515D01*
X845844Y237520D01*
X845963Y237574D01*
X846083Y237622D01*
X846107Y237639D01*
X846134Y237651D01*
X846236Y237732D01*
X846341Y237808D01*
X846359Y237831D01*
X846383Y237850D01*
X846461Y237953D01*
X846543Y238053D01*
X846556Y238080D01*
X846574Y238104D01*
X846645Y238248D01*
X847450Y240191D01*
X852809Y245550D01*
X859811Y248451D01*
X867389Y248451D01*
X874391Y245550D01*
X879750Y240191D01*
X882651Y233189D01*
X882651Y225611D01*
X879750Y218609D01*
X874391Y213250D01*
X867389Y210349D01*
X859811Y210349D01*
G37*
%LPD*%
%LPC*%
G36*
X264881Y382835D02*
X264881Y382835D01*
X261520Y384227D01*
X258947Y386800D01*
X257555Y390161D01*
X257555Y409039D01*
X258947Y412400D01*
X261520Y414973D01*
X264881Y416365D01*
X268519Y416365D01*
X271880Y414973D01*
X274453Y412400D01*
X275845Y409039D01*
X275845Y390161D01*
X274453Y386800D01*
X271880Y384227D01*
X268519Y382835D01*
X264881Y382835D01*
G37*
%LPD*%
%LPC*%
G36*
X239481Y382835D02*
X239481Y382835D01*
X236120Y384227D01*
X233547Y386800D01*
X232155Y390161D01*
X232155Y409039D01*
X233547Y412400D01*
X236120Y414973D01*
X239481Y416365D01*
X243119Y416365D01*
X246480Y414973D01*
X249053Y412400D01*
X250445Y409039D01*
X250445Y390161D01*
X249053Y386800D01*
X246480Y384227D01*
X243119Y382835D01*
X239481Y382835D01*
G37*
%LPD*%
%LPC*%
G36*
X188681Y382835D02*
X188681Y382835D01*
X185320Y384227D01*
X182747Y386800D01*
X181355Y390161D01*
X181355Y409039D01*
X182747Y412400D01*
X185320Y414973D01*
X188681Y416365D01*
X192319Y416365D01*
X195680Y414973D01*
X198253Y412400D01*
X199645Y409039D01*
X199645Y390161D01*
X198253Y386800D01*
X195680Y384227D01*
X192319Y382835D01*
X188681Y382835D01*
G37*
%LPD*%
%LPC*%
G36*
X163281Y382835D02*
X163281Y382835D01*
X159920Y384227D01*
X157347Y386800D01*
X155955Y390161D01*
X155955Y409039D01*
X157347Y412400D01*
X159920Y414973D01*
X163281Y416365D01*
X166919Y416365D01*
X170280Y414973D01*
X172853Y412400D01*
X174245Y409039D01*
X174245Y390161D01*
X172853Y386800D01*
X170280Y384227D01*
X166919Y382835D01*
X163281Y382835D01*
G37*
%LPD*%
%LPC*%
G36*
X137881Y382835D02*
X137881Y382835D01*
X134520Y384227D01*
X131947Y386800D01*
X130555Y390161D01*
X130555Y409039D01*
X131947Y412400D01*
X134520Y414973D01*
X137881Y416365D01*
X141519Y416365D01*
X144880Y414973D01*
X147453Y412400D01*
X148845Y409039D01*
X148845Y390161D01*
X147453Y386800D01*
X144880Y384227D01*
X141519Y382835D01*
X137881Y382835D01*
G37*
%LPD*%
%LPC*%
G36*
X341081Y333935D02*
X341081Y333935D01*
X337720Y335327D01*
X335147Y337900D01*
X333755Y341261D01*
X333755Y360139D01*
X335147Y363500D01*
X337720Y366073D01*
X341081Y367465D01*
X344719Y367465D01*
X348080Y366073D01*
X350653Y363500D01*
X352045Y360139D01*
X352045Y341261D01*
X350653Y337900D01*
X348080Y335327D01*
X344719Y333935D01*
X341081Y333935D01*
G37*
%LPD*%
%LPC*%
G36*
X264881Y333935D02*
X264881Y333935D01*
X261520Y335327D01*
X258947Y337900D01*
X257555Y341261D01*
X257555Y360139D01*
X258947Y363500D01*
X261520Y366073D01*
X264881Y367465D01*
X268519Y367465D01*
X271880Y366073D01*
X274453Y363500D01*
X275845Y360139D01*
X275845Y341261D01*
X274453Y337900D01*
X271880Y335327D01*
X268519Y333935D01*
X264881Y333935D01*
G37*
%LPD*%
%LPC*%
G36*
X315681Y333935D02*
X315681Y333935D01*
X312320Y335327D01*
X309747Y337900D01*
X308355Y341261D01*
X308355Y360139D01*
X309747Y363500D01*
X312320Y366073D01*
X315681Y367465D01*
X319319Y367465D01*
X322680Y366073D01*
X325253Y363500D01*
X326645Y360139D01*
X326645Y341261D01*
X325253Y337900D01*
X322680Y335327D01*
X319319Y333935D01*
X315681Y333935D01*
G37*
%LPD*%
%LPC*%
G36*
X290281Y333935D02*
X290281Y333935D01*
X286920Y335327D01*
X284347Y337900D01*
X282955Y341261D01*
X282955Y360139D01*
X284347Y363500D01*
X286920Y366073D01*
X290281Y367465D01*
X293919Y367465D01*
X297280Y366073D01*
X299853Y363500D01*
X301245Y360139D01*
X301245Y341261D01*
X299853Y337900D01*
X297280Y335327D01*
X293919Y333935D01*
X290281Y333935D01*
G37*
%LPD*%
%LPC*%
G36*
X214081Y382835D02*
X214081Y382835D01*
X210720Y384227D01*
X208147Y386800D01*
X206755Y390161D01*
X206755Y409039D01*
X208147Y412400D01*
X210720Y414973D01*
X214081Y416365D01*
X217719Y416365D01*
X221080Y414973D01*
X223653Y412400D01*
X225045Y409039D01*
X225045Y390161D01*
X223653Y386800D01*
X221080Y384227D01*
X217719Y382835D01*
X214081Y382835D01*
G37*
%LPD*%
%LPC*%
G36*
X290281Y382835D02*
X290281Y382835D01*
X286920Y384227D01*
X284347Y386800D01*
X282955Y390161D01*
X282955Y409039D01*
X284347Y412400D01*
X286920Y414973D01*
X290281Y416365D01*
X293919Y416365D01*
X297280Y414973D01*
X299853Y412400D01*
X301245Y409039D01*
X301245Y390161D01*
X299853Y386800D01*
X297280Y384227D01*
X293919Y382835D01*
X290281Y382835D01*
G37*
%LPD*%
%LPC*%
G36*
X161733Y208571D02*
X161733Y208571D01*
X156971Y213333D01*
X156971Y220067D01*
X161733Y224829D01*
X168467Y224829D01*
X173229Y220067D01*
X173229Y213333D01*
X168467Y208571D01*
X161733Y208571D01*
G37*
%LPD*%
%LPC*%
G36*
X237933Y208571D02*
X237933Y208571D01*
X233171Y213333D01*
X233171Y220067D01*
X237933Y224829D01*
X244667Y224829D01*
X249429Y220067D01*
X249429Y213333D01*
X244667Y208571D01*
X237933Y208571D01*
G37*
%LPD*%
%LPC*%
G36*
X199833Y208571D02*
X199833Y208571D01*
X195071Y213333D01*
X195071Y220067D01*
X199833Y224829D01*
X206567Y224829D01*
X211329Y220067D01*
X211329Y213333D01*
X206567Y208571D01*
X199833Y208571D01*
G37*
%LPD*%
%LPC*%
G36*
X47433Y208571D02*
X47433Y208571D01*
X42671Y213333D01*
X42671Y220067D01*
X47433Y224829D01*
X54167Y224829D01*
X58929Y220067D01*
X58929Y213333D01*
X54167Y208571D01*
X47433Y208571D01*
G37*
%LPD*%
%LPC*%
G36*
X85533Y208571D02*
X85533Y208571D01*
X80771Y213333D01*
X80771Y220067D01*
X85533Y224829D01*
X92267Y224829D01*
X97029Y220067D01*
X97029Y213333D01*
X92267Y208571D01*
X85533Y208571D01*
G37*
%LPD*%
%LPC*%
G36*
X123633Y208571D02*
X123633Y208571D01*
X118871Y213333D01*
X118871Y220067D01*
X123633Y224829D01*
X130367Y224829D01*
X135129Y220067D01*
X135129Y213333D01*
X130367Y208571D01*
X123633Y208571D01*
G37*
%LPD*%
%LPC*%
G36*
X531796Y221335D02*
X531796Y221335D01*
X528832Y222563D01*
X526563Y224832D01*
X525335Y227796D01*
X525335Y231004D01*
X526563Y233968D01*
X528832Y236237D01*
X531796Y237465D01*
X535004Y237465D01*
X537968Y236237D01*
X540237Y233968D01*
X541465Y231004D01*
X541465Y227796D01*
X540237Y224832D01*
X537968Y222563D01*
X535004Y221335D01*
X531796Y221335D01*
G37*
%LPD*%
%LPC*%
G36*
X811196Y221335D02*
X811196Y221335D01*
X808232Y222563D01*
X805963Y224832D01*
X804735Y227796D01*
X804735Y231004D01*
X805963Y233968D01*
X808232Y236237D01*
X811196Y237465D01*
X814404Y237465D01*
X817368Y236237D01*
X819637Y233968D01*
X820865Y231004D01*
X820865Y227796D01*
X819637Y224832D01*
X817368Y222563D01*
X814404Y221335D01*
X811196Y221335D01*
G37*
%LPD*%
%LPC*%
G36*
X785796Y221335D02*
X785796Y221335D01*
X782832Y222563D01*
X780563Y224832D01*
X779335Y227796D01*
X779335Y231004D01*
X780563Y233968D01*
X782832Y236237D01*
X785796Y237465D01*
X789004Y237465D01*
X791968Y236237D01*
X794237Y233968D01*
X795465Y231004D01*
X795465Y227796D01*
X794237Y224832D01*
X791968Y222563D01*
X789004Y221335D01*
X785796Y221335D01*
G37*
%LPD*%
%LPC*%
G36*
X760396Y221335D02*
X760396Y221335D01*
X757432Y222563D01*
X755163Y224832D01*
X753935Y227796D01*
X753935Y231004D01*
X755163Y233968D01*
X757432Y236237D01*
X760396Y237465D01*
X763604Y237465D01*
X766568Y236237D01*
X768837Y233968D01*
X770065Y231004D01*
X770065Y227796D01*
X768837Y224832D01*
X766568Y222563D01*
X763604Y221335D01*
X760396Y221335D01*
G37*
%LPD*%
%LPC*%
G36*
X582596Y221335D02*
X582596Y221335D01*
X579632Y222563D01*
X577363Y224832D01*
X576135Y227796D01*
X576135Y231004D01*
X577363Y233968D01*
X579632Y236237D01*
X582596Y237465D01*
X585804Y237465D01*
X588768Y236237D01*
X591037Y233968D01*
X592265Y231004D01*
X592265Y227796D01*
X591037Y224832D01*
X588768Y222563D01*
X585804Y221335D01*
X582596Y221335D01*
G37*
%LPD*%
%LPC*%
G36*
X557196Y221335D02*
X557196Y221335D01*
X554232Y222563D01*
X551963Y224832D01*
X550735Y227796D01*
X550735Y231004D01*
X551963Y233968D01*
X554232Y236237D01*
X557196Y237465D01*
X560404Y237465D01*
X563368Y236237D01*
X565637Y233968D01*
X566865Y231004D01*
X566865Y227796D01*
X565637Y224832D01*
X563368Y222563D01*
X560404Y221335D01*
X557196Y221335D01*
G37*
%LPD*%
%LPC*%
G36*
X319531Y91731D02*
X319531Y91731D01*
X319531Y98845D01*
X321288Y98845D01*
X326645Y93488D01*
X326645Y91731D01*
X319531Y91731D01*
G37*
%LPD*%
%LPC*%
G36*
X243331Y91731D02*
X243331Y91731D01*
X243331Y98845D01*
X245088Y98845D01*
X250445Y93488D01*
X250445Y91731D01*
X243331Y91731D01*
G37*
%LPD*%
%LPC*%
G36*
X52831Y91731D02*
X52831Y91731D01*
X52831Y98845D01*
X54588Y98845D01*
X59945Y93488D01*
X59945Y91731D01*
X52831Y91731D01*
G37*
%LPD*%
%LPC*%
G36*
X205231Y91731D02*
X205231Y91731D01*
X205231Y98845D01*
X206988Y98845D01*
X212345Y93488D01*
X212345Y91731D01*
X205231Y91731D01*
G37*
%LPD*%
%LPC*%
G36*
X167131Y91731D02*
X167131Y91731D01*
X167131Y98845D01*
X168888Y98845D01*
X174245Y93488D01*
X174245Y91731D01*
X167131Y91731D01*
G37*
%LPD*%
%LPC*%
G36*
X129031Y91731D02*
X129031Y91731D01*
X129031Y98845D01*
X130788Y98845D01*
X136145Y93488D01*
X136145Y91731D01*
X129031Y91731D01*
G37*
%LPD*%
%LPC*%
G36*
X281431Y91731D02*
X281431Y91731D01*
X281431Y98845D01*
X283188Y98845D01*
X288545Y93488D01*
X288545Y91731D01*
X281431Y91731D01*
G37*
%LPD*%
%LPC*%
G36*
X90931Y91731D02*
X90931Y91731D01*
X90931Y98845D01*
X92688Y98845D01*
X98045Y93488D01*
X98045Y91731D01*
X90931Y91731D01*
G37*
%LPD*%
%LPC*%
G36*
X357631Y91731D02*
X357631Y91731D01*
X357631Y98845D01*
X359388Y98845D01*
X364745Y93488D01*
X364745Y91731D01*
X357631Y91731D01*
G37*
%LPD*%
%LPC*%
G36*
X395731Y91731D02*
X395731Y91731D01*
X395731Y98845D01*
X397488Y98845D01*
X402845Y93488D01*
X402845Y91731D01*
X395731Y91731D01*
G37*
%LPD*%
%LPC*%
G36*
X270255Y91731D02*
X270255Y91731D01*
X270255Y93488D01*
X275612Y98845D01*
X277369Y98845D01*
X277369Y91731D01*
X270255Y91731D01*
G37*
%LPD*%
%LPC*%
G36*
X308355Y91731D02*
X308355Y91731D01*
X308355Y93488D01*
X313712Y98845D01*
X315469Y98845D01*
X315469Y91731D01*
X308355Y91731D01*
G37*
%LPD*%
%LPC*%
G36*
X117855Y91731D02*
X117855Y91731D01*
X117855Y93488D01*
X123212Y98845D01*
X124969Y98845D01*
X124969Y91731D01*
X117855Y91731D01*
G37*
%LPD*%
%LPC*%
G36*
X384555Y91731D02*
X384555Y91731D01*
X384555Y93488D01*
X389912Y98845D01*
X391669Y98845D01*
X391669Y91731D01*
X384555Y91731D01*
G37*
%LPD*%
%LPC*%
G36*
X79755Y91731D02*
X79755Y91731D01*
X79755Y93488D01*
X85112Y98845D01*
X86869Y98845D01*
X86869Y91731D01*
X79755Y91731D01*
G37*
%LPD*%
%LPC*%
G36*
X155955Y91731D02*
X155955Y91731D01*
X155955Y93488D01*
X161312Y98845D01*
X163069Y98845D01*
X163069Y91731D01*
X155955Y91731D01*
G37*
%LPD*%
%LPC*%
G36*
X232155Y91731D02*
X232155Y91731D01*
X232155Y93488D01*
X237512Y98845D01*
X239269Y98845D01*
X239269Y91731D01*
X232155Y91731D01*
G37*
%LPD*%
%LPC*%
G36*
X41655Y91731D02*
X41655Y91731D01*
X41655Y93488D01*
X47012Y98845D01*
X48769Y98845D01*
X48769Y91731D01*
X41655Y91731D01*
G37*
%LPD*%
%LPC*%
G36*
X346455Y91731D02*
X346455Y91731D01*
X346455Y93488D01*
X351812Y98845D01*
X353569Y98845D01*
X353569Y91731D01*
X346455Y91731D01*
G37*
%LPD*%
%LPC*%
G36*
X194055Y91731D02*
X194055Y91731D01*
X194055Y93488D01*
X199412Y98845D01*
X201169Y98845D01*
X201169Y91731D01*
X194055Y91731D01*
G37*
%LPD*%
%LPC*%
G36*
X281431Y80555D02*
X281431Y80555D01*
X281431Y87669D01*
X288545Y87669D01*
X288545Y85912D01*
X283188Y80555D01*
X281431Y80555D01*
G37*
%LPD*%
%LPC*%
G36*
X243331Y80555D02*
X243331Y80555D01*
X243331Y87669D01*
X250445Y87669D01*
X250445Y85912D01*
X245088Y80555D01*
X243331Y80555D01*
G37*
%LPD*%
%LPC*%
G36*
X319531Y80555D02*
X319531Y80555D01*
X319531Y87669D01*
X326645Y87669D01*
X326645Y85912D01*
X321288Y80555D01*
X319531Y80555D01*
G37*
%LPD*%
%LPC*%
G36*
X205231Y80555D02*
X205231Y80555D01*
X205231Y87669D01*
X212345Y87669D01*
X212345Y85912D01*
X206988Y80555D01*
X205231Y80555D01*
G37*
%LPD*%
%LPC*%
G36*
X167131Y80555D02*
X167131Y80555D01*
X167131Y87669D01*
X174245Y87669D01*
X174245Y85912D01*
X168888Y80555D01*
X167131Y80555D01*
G37*
%LPD*%
%LPC*%
G36*
X129031Y80555D02*
X129031Y80555D01*
X129031Y87669D01*
X136145Y87669D01*
X136145Y85912D01*
X130788Y80555D01*
X129031Y80555D01*
G37*
%LPD*%
%LPC*%
G36*
X90931Y80555D02*
X90931Y80555D01*
X90931Y87669D01*
X98045Y87669D01*
X98045Y85912D01*
X92688Y80555D01*
X90931Y80555D01*
G37*
%LPD*%
%LPC*%
G36*
X52831Y80555D02*
X52831Y80555D01*
X52831Y87669D01*
X59945Y87669D01*
X59945Y85912D01*
X54588Y80555D01*
X52831Y80555D01*
G37*
%LPD*%
%LPC*%
G36*
X395731Y80555D02*
X395731Y80555D01*
X395731Y87669D01*
X402845Y87669D01*
X402845Y85912D01*
X397488Y80555D01*
X395731Y80555D01*
G37*
%LPD*%
%LPC*%
G36*
X357631Y80555D02*
X357631Y80555D01*
X357631Y87669D01*
X364745Y87669D01*
X364745Y85912D01*
X359388Y80555D01*
X357631Y80555D01*
G37*
%LPD*%
%LPC*%
G36*
X275612Y80555D02*
X275612Y80555D01*
X270255Y85912D01*
X270255Y87669D01*
X277369Y87669D01*
X277369Y80555D01*
X275612Y80555D01*
G37*
%LPD*%
%LPC*%
G36*
X123212Y80555D02*
X123212Y80555D01*
X117855Y85912D01*
X117855Y87669D01*
X124969Y87669D01*
X124969Y80555D01*
X123212Y80555D01*
G37*
%LPD*%
%LPC*%
G36*
X313712Y80555D02*
X313712Y80555D01*
X308355Y85912D01*
X308355Y87669D01*
X315469Y87669D01*
X315469Y80555D01*
X313712Y80555D01*
G37*
%LPD*%
%LPC*%
G36*
X237512Y80555D02*
X237512Y80555D01*
X232155Y85912D01*
X232155Y87669D01*
X239269Y87669D01*
X239269Y80555D01*
X237512Y80555D01*
G37*
%LPD*%
%LPC*%
G36*
X161312Y80555D02*
X161312Y80555D01*
X155955Y85912D01*
X155955Y87669D01*
X163069Y87669D01*
X163069Y80555D01*
X161312Y80555D01*
G37*
%LPD*%
%LPC*%
G36*
X85112Y80555D02*
X85112Y80555D01*
X79755Y85912D01*
X79755Y87669D01*
X86869Y87669D01*
X86869Y80555D01*
X85112Y80555D01*
G37*
%LPD*%
%LPC*%
G36*
X47012Y80555D02*
X47012Y80555D01*
X41655Y85912D01*
X41655Y87669D01*
X48769Y87669D01*
X48769Y80555D01*
X47012Y80555D01*
G37*
%LPD*%
%LPC*%
G36*
X199412Y80555D02*
X199412Y80555D01*
X194055Y85912D01*
X194055Y87669D01*
X201169Y87669D01*
X201169Y80555D01*
X199412Y80555D01*
G37*
%LPD*%
%LPC*%
G36*
X389912Y80555D02*
X389912Y80555D01*
X384555Y85912D01*
X384555Y87669D01*
X391669Y87669D01*
X391669Y80555D01*
X389912Y80555D01*
G37*
%LPD*%
%LPC*%
G36*
X351812Y80555D02*
X351812Y80555D01*
X346455Y85912D01*
X346455Y87669D01*
X353569Y87669D01*
X353569Y80555D01*
X351812Y80555D01*
G37*
%LPD*%
%LPC*%
G36*
X509999Y231399D02*
X509999Y231399D01*
X509999Y238277D01*
X510126Y238257D01*
X511486Y237815D01*
X512759Y237167D01*
X513916Y236326D01*
X514926Y235316D01*
X515767Y234159D01*
X516415Y232886D01*
X516857Y231526D01*
X516877Y231399D01*
X509999Y231399D01*
G37*
%LPD*%
%LPC*%
G36*
X509999Y227401D02*
X509999Y227401D01*
X516877Y227401D01*
X516857Y227274D01*
X516415Y225914D01*
X515767Y224641D01*
X514926Y223484D01*
X513916Y222474D01*
X512759Y221633D01*
X511486Y220985D01*
X510126Y220543D01*
X509999Y220523D01*
X509999Y227401D01*
G37*
%LPD*%
%LPC*%
G36*
X499123Y231399D02*
X499123Y231399D01*
X499143Y231526D01*
X499585Y232886D01*
X500233Y234159D01*
X501074Y235316D01*
X502084Y236326D01*
X503241Y237167D01*
X504514Y237815D01*
X505874Y238257D01*
X506001Y238277D01*
X506001Y231399D01*
X499123Y231399D01*
G37*
%LPD*%
%LPC*%
G36*
X560799Y75001D02*
X560799Y75001D01*
X567677Y75001D01*
X567657Y74874D01*
X567215Y73514D01*
X566567Y72241D01*
X565726Y71084D01*
X564716Y70074D01*
X563559Y69233D01*
X562286Y68585D01*
X560926Y68143D01*
X560799Y68123D01*
X560799Y75001D01*
G37*
%LPD*%
%LPC*%
G36*
X556674Y68143D02*
X556674Y68143D01*
X555314Y68585D01*
X554041Y69233D01*
X552884Y70074D01*
X551874Y71084D01*
X551033Y72241D01*
X550385Y73514D01*
X549943Y74874D01*
X549923Y75001D01*
X556801Y75001D01*
X556801Y68123D01*
X556674Y68143D01*
G37*
%LPD*%
%LPC*%
G36*
X505874Y220543D02*
X505874Y220543D01*
X504514Y220985D01*
X503241Y221633D01*
X502084Y222474D01*
X501074Y223484D01*
X500233Y224641D01*
X499585Y225914D01*
X499143Y227274D01*
X499123Y227401D01*
X506001Y227401D01*
X506001Y220523D01*
X505874Y220543D01*
G37*
%LPD*%
D10*
X838200Y229400D03*
D11*
X812800Y229400D03*
X787400Y229400D03*
X762000Y229400D03*
X736600Y229400D03*
X711200Y229400D03*
X685800Y229400D03*
X660400Y229400D03*
X635000Y229400D03*
X609600Y229400D03*
X584200Y229400D03*
X558800Y229400D03*
X533400Y229400D03*
X508000Y229400D03*
X482600Y229400D03*
X482600Y77000D03*
X508000Y77000D03*
X533400Y77000D03*
X558800Y77000D03*
X584200Y77000D03*
X609600Y77000D03*
X635000Y77000D03*
X660400Y77000D03*
X685800Y77000D03*
X711200Y77000D03*
X736600Y77000D03*
X762000Y77000D03*
X787400Y77000D03*
X812800Y77000D03*
X838200Y77000D03*
D12*
X279400Y89700D03*
X279400Y216700D03*
D13*
X50800Y216700D03*
X50800Y89700D03*
D12*
X317500Y89700D03*
X317500Y216700D03*
X355600Y89700D03*
X355600Y216700D03*
X393700Y89700D03*
X393700Y216700D03*
D13*
X241300Y216700D03*
X241300Y89700D03*
X203200Y216700D03*
X203200Y89700D03*
X165100Y216700D03*
X165100Y89700D03*
X127000Y216700D03*
X127000Y89700D03*
X88900Y216700D03*
X88900Y89700D03*
D14*
X114300Y343080D02*
X114300Y358320D01*
X139700Y358320D02*
X139700Y343080D01*
X165100Y343080D02*
X165100Y358320D01*
X190500Y358320D02*
X190500Y343080D01*
X215900Y343080D02*
X215900Y358320D01*
X241300Y358320D02*
X241300Y343080D01*
X266700Y343080D02*
X266700Y358320D01*
X292100Y358320D02*
X292100Y343080D01*
X317500Y343080D02*
X317500Y358320D01*
X342900Y358320D02*
X342900Y343080D01*
X139700Y391980D02*
X139700Y407220D01*
X165100Y407220D02*
X165100Y391980D01*
X190500Y391980D02*
X190500Y407220D01*
X215900Y407220D02*
X215900Y391980D01*
X241300Y391980D02*
X241300Y407220D01*
X266700Y407220D02*
X266700Y391980D01*
X292100Y391980D02*
X292100Y407220D01*
D15*
X787400Y127800D02*
X838200Y77000D01*
X482600Y127800D02*
X393700Y216700D01*
X482600Y127800D02*
X787400Y127800D01*
X774700Y115100D02*
X812800Y77000D01*
X471904Y115100D02*
X456664Y130340D01*
X441960Y130340D02*
X355600Y216700D01*
X441960Y130340D02*
X456664Y130340D01*
X471904Y115100D02*
X774700Y115100D01*
X762000Y102400D02*
X787400Y77000D01*
X473828Y102400D02*
X453508Y122720D01*
X411480Y122720D02*
X317500Y216700D01*
X411480Y122720D02*
X453508Y122720D01*
X473828Y102400D02*
X762000Y102400D01*
X749300Y89700D02*
X762000Y77000D01*
X749300Y89700D02*
X475751Y89700D01*
X450351Y115100D02*
X330200Y115100D01*
X279400Y165900D01*
X279400Y216700D01*
X450351Y115100D02*
X475751Y89700D01*
X650700Y315300D02*
X736600Y229400D01*
X650700Y315300D02*
X254000Y315300D01*
X241300Y328000D01*
X241300Y350700D01*
X228600Y302600D02*
X638000Y302600D01*
X228600Y302600D02*
X215900Y315300D01*
X215900Y350700D01*
X638000Y302600D02*
X711200Y229400D01*
X625300Y289900D02*
X203200Y289900D01*
X190500Y302600D01*
X190500Y350700D01*
X625300Y289900D02*
X685800Y229400D01*
X660400Y229400D02*
X612600Y277200D01*
X190500Y277200D01*
X165100Y302600D01*
X165100Y350700D01*
X599900Y264500D02*
X635000Y229400D01*
X599900Y264500D02*
X177800Y264500D01*
X139700Y302600D01*
X139700Y350700D01*
X587200Y251800D02*
X609600Y229400D01*
X587200Y251800D02*
X162400Y251800D01*
X114300Y299900D01*
X114300Y350700D01*
M02*
