G04 EAGLE Gerber RS-274X export*
G75*
%MOMM*%
%FSLAX34Y34*%
%LPD*%
%IN*%
%IPPOS*%
%AMOC8*
5,1,8,0,0,1.08239X$1,22.5*%
G01*
%ADD10C,0.254000*%


D10*
X0Y0D02*
X1000000Y0D01*
X1000000Y520000D01*
X0Y520000D01*
X0Y0D01*
X985240Y344456D02*
X985162Y343370D01*
X985007Y342292D01*
X984776Y341229D01*
X984469Y340184D01*
X984089Y339164D01*
X983637Y338174D01*
X983115Y337219D01*
X982526Y336303D01*
X981874Y335431D01*
X981161Y334609D01*
X980391Y333839D01*
X979569Y333126D01*
X978697Y332474D01*
X977781Y331885D01*
X976826Y331363D01*
X975836Y330911D01*
X974816Y330531D01*
X973771Y330224D01*
X972708Y329993D01*
X971630Y329838D01*
X970544Y329760D01*
X969456Y329760D01*
X968370Y329838D01*
X967292Y329993D01*
X966229Y330224D01*
X965184Y330531D01*
X964164Y330911D01*
X963174Y331363D01*
X962219Y331885D01*
X961303Y332474D01*
X960431Y333126D01*
X959609Y333839D01*
X958839Y334609D01*
X958126Y335431D01*
X957474Y336303D01*
X956885Y337219D01*
X956363Y338174D01*
X955911Y339164D01*
X955531Y340184D01*
X955224Y341229D01*
X954993Y342292D01*
X954838Y343370D01*
X954760Y344456D01*
X954760Y345544D01*
X954838Y346630D01*
X954993Y347708D01*
X955224Y348771D01*
X955531Y349816D01*
X955911Y350836D01*
X956363Y351826D01*
X956885Y352781D01*
X957474Y353697D01*
X958126Y354569D01*
X958839Y355391D01*
X959609Y356161D01*
X960431Y356874D01*
X961303Y357526D01*
X962219Y358115D01*
X963174Y358637D01*
X964164Y359089D01*
X965184Y359469D01*
X966229Y359776D01*
X967292Y360007D01*
X968370Y360162D01*
X969456Y360240D01*
X970544Y360240D01*
X971630Y360162D01*
X972708Y360007D01*
X973771Y359776D01*
X974816Y359469D01*
X975836Y359089D01*
X976826Y358637D01*
X977781Y358115D01*
X978697Y357526D01*
X979569Y356874D01*
X980391Y356161D01*
X981161Y355391D01*
X981874Y354569D01*
X982526Y353697D01*
X983115Y352781D01*
X983637Y351826D01*
X984089Y350836D01*
X984469Y349816D01*
X984776Y348771D01*
X985007Y347708D01*
X985162Y346630D01*
X985240Y345544D01*
X985240Y344456D01*
X515240Y344456D02*
X515162Y343370D01*
X515007Y342292D01*
X514776Y341229D01*
X514469Y340184D01*
X514089Y339164D01*
X513637Y338174D01*
X513115Y337219D01*
X512526Y336303D01*
X511874Y335431D01*
X511161Y334609D01*
X510391Y333839D01*
X509569Y333126D01*
X508697Y332474D01*
X507781Y331885D01*
X506826Y331363D01*
X505836Y330911D01*
X504816Y330531D01*
X503771Y330224D01*
X502708Y329993D01*
X501630Y329838D01*
X500544Y329760D01*
X499456Y329760D01*
X498370Y329838D01*
X497292Y329993D01*
X496229Y330224D01*
X495184Y330531D01*
X494164Y330911D01*
X493174Y331363D01*
X492219Y331885D01*
X491303Y332474D01*
X490431Y333126D01*
X489609Y333839D01*
X488839Y334609D01*
X488126Y335431D01*
X487474Y336303D01*
X486885Y337219D01*
X486363Y338174D01*
X485911Y339164D01*
X485531Y340184D01*
X485224Y341229D01*
X484993Y342292D01*
X484838Y343370D01*
X484760Y344456D01*
X484760Y345544D01*
X484838Y346630D01*
X484993Y347708D01*
X485224Y348771D01*
X485531Y349816D01*
X485911Y350836D01*
X486363Y351826D01*
X486885Y352781D01*
X487474Y353697D01*
X488126Y354569D01*
X488839Y355391D01*
X489609Y356161D01*
X490431Y356874D01*
X491303Y357526D01*
X492219Y358115D01*
X493174Y358637D01*
X494164Y359089D01*
X495184Y359469D01*
X496229Y359776D01*
X497292Y360007D01*
X498370Y360162D01*
X499456Y360240D01*
X500544Y360240D01*
X501630Y360162D01*
X502708Y360007D01*
X503771Y359776D01*
X504816Y359469D01*
X505836Y359089D01*
X506826Y358637D01*
X507781Y358115D01*
X508697Y357526D01*
X509569Y356874D01*
X510391Y356161D01*
X511161Y355391D01*
X511874Y354569D01*
X512526Y353697D01*
X513115Y352781D01*
X513637Y351826D01*
X514089Y350836D01*
X514469Y349816D01*
X514776Y348771D01*
X515007Y347708D01*
X515162Y346630D01*
X515240Y345544D01*
X515240Y344456D01*
X854710Y229788D02*
X854778Y230561D01*
X854912Y231326D01*
X855113Y232076D01*
X855379Y232805D01*
X855707Y233509D01*
X856095Y234181D01*
X856540Y234817D01*
X857039Y235412D01*
X857588Y235961D01*
X858183Y236460D01*
X858819Y236905D01*
X859491Y237293D01*
X860195Y237621D01*
X860924Y237887D01*
X861674Y238088D01*
X862439Y238222D01*
X863212Y238290D01*
X863988Y238290D01*
X864761Y238222D01*
X865526Y238088D01*
X866276Y237887D01*
X867005Y237621D01*
X867709Y237293D01*
X868381Y236905D01*
X869017Y236460D01*
X869612Y235961D01*
X870161Y235412D01*
X870660Y234817D01*
X871105Y234181D01*
X871493Y233509D01*
X871821Y232805D01*
X872087Y232076D01*
X872288Y231326D01*
X872422Y230561D01*
X872490Y229788D01*
X872490Y229012D01*
X872422Y228239D01*
X872288Y227474D01*
X872087Y226724D01*
X871821Y225995D01*
X871493Y225291D01*
X871105Y224619D01*
X870660Y223983D01*
X870161Y223388D01*
X869612Y222839D01*
X869017Y222340D01*
X868381Y221895D01*
X867709Y221507D01*
X867005Y221179D01*
X866276Y220913D01*
X865526Y220712D01*
X864761Y220578D01*
X863988Y220510D01*
X863212Y220510D01*
X862439Y220578D01*
X861674Y220712D01*
X860924Y220913D01*
X860195Y221179D01*
X859491Y221507D01*
X858819Y221895D01*
X858183Y222340D01*
X857588Y222839D01*
X857039Y223388D01*
X856540Y223983D01*
X856095Y224619D01*
X855707Y225291D01*
X855379Y225995D01*
X855113Y226724D01*
X854912Y227474D01*
X854778Y228239D01*
X854710Y229012D01*
X854710Y229788D01*
X854710Y77388D02*
X854778Y78161D01*
X854912Y78926D01*
X855113Y79676D01*
X855379Y80405D01*
X855707Y81109D01*
X856095Y81781D01*
X856540Y82417D01*
X857039Y83012D01*
X857588Y83561D01*
X858183Y84060D01*
X858819Y84505D01*
X859491Y84893D01*
X860195Y85221D01*
X860924Y85487D01*
X861674Y85688D01*
X862439Y85822D01*
X863212Y85890D01*
X863988Y85890D01*
X864761Y85822D01*
X865526Y85688D01*
X866276Y85487D01*
X867005Y85221D01*
X867709Y84893D01*
X868381Y84505D01*
X869017Y84060D01*
X869612Y83561D01*
X870161Y83012D01*
X870660Y82417D01*
X871105Y81781D01*
X871493Y81109D01*
X871821Y80405D01*
X872087Y79676D01*
X872288Y78926D01*
X872422Y78161D01*
X872490Y77388D01*
X872490Y76612D01*
X872422Y75839D01*
X872288Y75074D01*
X872087Y74324D01*
X871821Y73595D01*
X871493Y72891D01*
X871105Y72219D01*
X870660Y71583D01*
X870161Y70988D01*
X869612Y70439D01*
X869017Y69940D01*
X868381Y69495D01*
X867709Y69107D01*
X867005Y68779D01*
X866276Y68513D01*
X865526Y68312D01*
X864761Y68178D01*
X863988Y68110D01*
X863212Y68110D01*
X862439Y68178D01*
X861674Y68312D01*
X860924Y68513D01*
X860195Y68779D01*
X859491Y69107D01*
X858819Y69495D01*
X858183Y69940D01*
X857588Y70439D01*
X857039Y70988D01*
X856540Y71583D01*
X856095Y72219D01*
X855707Y72891D01*
X855379Y73595D01*
X855113Y74324D01*
X854912Y75074D01*
X854778Y75839D01*
X854710Y76612D01*
X854710Y77388D01*
X448310Y77388D02*
X448378Y78161D01*
X448512Y78926D01*
X448713Y79676D01*
X448979Y80405D01*
X449307Y81109D01*
X449695Y81781D01*
X450140Y82417D01*
X450639Y83012D01*
X451188Y83561D01*
X451783Y84060D01*
X452419Y84505D01*
X453091Y84893D01*
X453795Y85221D01*
X454524Y85487D01*
X455274Y85688D01*
X456039Y85822D01*
X456812Y85890D01*
X457588Y85890D01*
X458361Y85822D01*
X459126Y85688D01*
X459876Y85487D01*
X460605Y85221D01*
X461309Y84893D01*
X461981Y84505D01*
X462617Y84060D01*
X463212Y83561D01*
X463761Y83012D01*
X464260Y82417D01*
X464705Y81781D01*
X465093Y81109D01*
X465421Y80405D01*
X465687Y79676D01*
X465888Y78926D01*
X466022Y78161D01*
X466090Y77388D01*
X466090Y76612D01*
X466022Y75839D01*
X465888Y75074D01*
X465687Y74324D01*
X465421Y73595D01*
X465093Y72891D01*
X464705Y72219D01*
X464260Y71583D01*
X463761Y70988D01*
X463212Y70439D01*
X462617Y69940D01*
X461981Y69495D01*
X461309Y69107D01*
X460605Y68779D01*
X459876Y68513D01*
X459126Y68312D01*
X458361Y68178D01*
X457588Y68110D01*
X456812Y68110D01*
X456039Y68178D01*
X455274Y68312D01*
X454524Y68513D01*
X453795Y68779D01*
X453091Y69107D01*
X452419Y69495D01*
X451783Y69940D01*
X451188Y70439D01*
X450639Y70988D01*
X450140Y71583D01*
X449695Y72219D01*
X449307Y72891D01*
X448979Y73595D01*
X448713Y74324D01*
X448512Y75074D01*
X448378Y75839D01*
X448310Y76612D01*
X448310Y77388D01*
X448310Y229788D02*
X448378Y230561D01*
X448512Y231326D01*
X448713Y232076D01*
X448979Y232805D01*
X449307Y233509D01*
X449695Y234181D01*
X450140Y234817D01*
X450639Y235412D01*
X451188Y235961D01*
X451783Y236460D01*
X452419Y236905D01*
X453091Y237293D01*
X453795Y237621D01*
X454524Y237887D01*
X455274Y238088D01*
X456039Y238222D01*
X456812Y238290D01*
X457588Y238290D01*
X458361Y238222D01*
X459126Y238088D01*
X459876Y237887D01*
X460605Y237621D01*
X461309Y237293D01*
X461981Y236905D01*
X462617Y236460D01*
X463212Y235961D01*
X463761Y235412D01*
X464260Y234817D01*
X464705Y234181D01*
X465093Y233509D01*
X465421Y232805D01*
X465687Y232076D01*
X465888Y231326D01*
X466022Y230561D01*
X466090Y229788D01*
X466090Y229012D01*
X466022Y228239D01*
X465888Y227474D01*
X465687Y226724D01*
X465421Y225995D01*
X465093Y225291D01*
X464705Y224619D01*
X464260Y223983D01*
X463761Y223388D01*
X463212Y222839D01*
X462617Y222340D01*
X461981Y221895D01*
X461309Y221507D01*
X460605Y221179D01*
X459876Y220913D01*
X459126Y220712D01*
X458361Y220578D01*
X457588Y220510D01*
X456812Y220510D01*
X456039Y220578D01*
X455274Y220712D01*
X454524Y220913D01*
X453795Y221179D01*
X453091Y221507D01*
X452419Y221895D01*
X451783Y222340D01*
X451188Y222839D01*
X450639Y223388D01*
X450140Y223983D01*
X449695Y224619D01*
X449307Y225291D01*
X448979Y225995D01*
X448713Y226724D01*
X448512Y227474D01*
X448378Y228239D01*
X448310Y229012D01*
X448310Y229788D01*
M02*
