G04 EAGLE Gerber RS-274X export*
G75*
%MOMM*%
%FSLAX34Y34*%
%LPD*%
%INSoldermask Top*%
%IPPOS*%
%AMOC8*
5,1,8,0,0,1.08239X$1,22.5*%
G01*
%ADD10C,3.251200*%
%ADD11C,1.981200*%
%ADD12R,1.511200X1.511200*%
%ADD13C,1.511200*%
%ADD14P,1.649562X8X112.500000*%
%ADD15P,1.649562X8X292.500000*%
%ADD16C,1.727200*%


D10*
X970000Y345000D03*
X500000Y345000D03*
D11*
X863600Y229400D03*
D12*
X838200Y229400D03*
D13*
X812800Y229400D03*
X787400Y229400D03*
X762000Y229400D03*
X736600Y229400D03*
X711200Y229400D03*
X685800Y229400D03*
X660400Y229400D03*
X635000Y229400D03*
X609600Y229400D03*
X584200Y229400D03*
X558800Y229400D03*
X533400Y229400D03*
X508000Y229400D03*
X482600Y229400D03*
X482600Y77000D03*
X508000Y77000D03*
X533400Y77000D03*
X558800Y77000D03*
X584200Y77000D03*
X609600Y77000D03*
X635000Y77000D03*
X660400Y77000D03*
X685800Y77000D03*
X711200Y77000D03*
X736600Y77000D03*
X762000Y77000D03*
X787400Y77000D03*
X812800Y77000D03*
X838200Y77000D03*
D11*
X863600Y77000D03*
X457200Y77000D03*
X457200Y229400D03*
D14*
X279400Y89700D03*
X279400Y216700D03*
D15*
X50800Y216700D03*
X50800Y89700D03*
D14*
X317500Y89700D03*
X317500Y216700D03*
X355600Y89700D03*
X355600Y216700D03*
X393700Y89700D03*
X393700Y216700D03*
D15*
X241300Y216700D03*
X241300Y89700D03*
X203200Y216700D03*
X203200Y89700D03*
X165100Y216700D03*
X165100Y89700D03*
X127000Y216700D03*
X127000Y89700D03*
X88900Y216700D03*
X88900Y89700D03*
D16*
X114300Y343080D02*
X114300Y358320D01*
X139700Y358320D02*
X139700Y343080D01*
X165100Y343080D02*
X165100Y358320D01*
X190500Y358320D02*
X190500Y343080D01*
X215900Y343080D02*
X215900Y358320D01*
X241300Y358320D02*
X241300Y343080D01*
X266700Y343080D02*
X266700Y358320D01*
X292100Y358320D02*
X292100Y343080D01*
X317500Y343080D02*
X317500Y358320D01*
X342900Y358320D02*
X342900Y343080D01*
X139700Y391980D02*
X139700Y407220D01*
X165100Y407220D02*
X165100Y391980D01*
X190500Y391980D02*
X190500Y407220D01*
X215900Y407220D02*
X215900Y391980D01*
X241300Y391980D02*
X241300Y407220D01*
X266700Y407220D02*
X266700Y391980D01*
X292100Y391980D02*
X292100Y407220D01*
M02*
