M48
;GenerationSoftware,Autodesk,EAGLE,9.6.2*%
;CreationDate,2024-01-26T17:45:12Z*%
FMAT,2
ICI,OFF
METRIC,TZ,000.000
T5C0.800
T4C0.813
T3C1.016
T2C1.778
T1C3.048
%
G90
M71
T1
X97000Y34500
X50000Y34500
T2
X86360Y22940
X86360Y7700
X45720Y7700
X45720Y22940
T3
X16510Y39960
X13970Y39960
X34290Y35070
X29210Y39960
X31750Y35070
X29210Y35070
X26670Y35070
X24130Y35070
X21590Y35070
X19050Y35070
X16510Y35070
X13970Y35070
X11430Y35070
X26670Y39960
X24130Y39960
X21590Y39960
X19050Y39960
T4
X35560Y21670
X39370Y8970
X24130Y21670
X24130Y8970
X20320Y21670
X20320Y8970
X16510Y21670
X16510Y8970
X12700Y21670
X12700Y8970
X8890Y8970
X8890Y21670
X27940Y8970
X39370Y21670
X27940Y21670
X5080Y21670
X5080Y8970
X31750Y8970
X31750Y21670
X35560Y8970
T5
X83820Y22940
X81280Y22940
X78740Y22940
X73660Y22940
X71120Y22940
X68580Y22940
X66040Y22940
X63500Y22940
X60960Y22940
X58420Y22940
X55880Y22940
X53340Y22940
X63500Y7700
X81280Y7700
X78740Y7700
X76200Y7700
X73660Y7700
X71120Y7700
X68580Y7700
X66040Y7700
X76200Y22940
X60960Y7700
X58420Y7700
X55880Y7700
X53340Y7700
X50800Y7700
X48260Y7700
X48260Y22940
X50800Y22940
X83820Y7700
M30